<?xml version="1.0" standalone="no"?>
  <!DOCTYPE svg PUBLIC "-//W3C//DTD SVG 1.1//EN" "http://www.w3.org/Graphics/SVG/1.1/DTD/svg11.dtd" >
  <svg>
  <metadata>
  Created by font-carrier
  </metadata>
  <defs>
  <font id="CaviarDreams-BoldItalic" horiz-adv-x="3034" vert-adv-y="3034" >
    <font-face
      
      font-family="Caviar Dreams"
      
      font-weight="400"
      
      font-stretch="normal"
      
      units-per-em="2048"
      
      ascent="2009"
      
      descent="-584"
      
    />
      <missing-glyph />

      

      
      <glyph glyph-name="uni21" unicode="&#x21;" d="M319 277Q379 277 414.50 235Q450 193 439 133Q428 71 378 29Q328-13 268-13Q209-13 173.50 29Q138 71 149 133Q160 193 210 235Q260 277 319 277M655 1600L453 455L246 455L448 1600L655 1600Z"  horiz-adv-x="541" vert-adv-y="2048"  />

      
      <glyph glyph-name="uni22" unicode="&#x22;" d="M187 920L306 1597L513 1597L394 920L187 920M504 920L623 1597L830 1597L711 920L504 920Z"  horiz-adv-x="574" vert-adv-y="2048"  />

      
      <glyph glyph-name="uni23" unicode="&#x23;" d="M1056 1033L1140 1033L1314 1443L1525 1443L1351 1033L1762 1033L1672 826L1262 826L1224 738L1635 738L1546 531L1136 531L962 120L751 120L925 531L841 531L667 120L455 120L630 531L219 531L308 738L718 738L756 826L345 826L435 1033L845 1033L1019 1443L1230 1443L1056 1033M1051 826L967 826L929 738L1013 738L1051 826Z"  horiz-adv-x="1705" vert-adv-y="2048"  />

      
      <glyph glyph-name="uni24" unicode="&#x24;" d="M591 117L571 0L387 0L407 117Q292 139 215 220Q132 308 133 475L357 543Q349 397 393 351Q415 328 442 314L515 728Q407 771 328 854Q223 963 251 1117Q278 1271 422 1382Q527 1462 648 1484L669 1600L853 1600L832 1484Q947 1462 1024 1381Q1108 1293 1106 1126L882 1058Q891 1204 847 1250Q825 1273 798 1287L725 873Q832 830 911 747Q1016 638 989 484Q962 330 818 220Q713 139 591 117M554 946L614 1287Q582 1274 553 1252Q482 1197 468 1117Q454 1039 504 985Q524 965 554 946M686 655L626 314Q658 327 687 350Q758 404 772 484Q786 562 735 616Q716 636 686 655Z"  horiz-adv-x="958" vert-adv-y="2048"  />

      
      <glyph glyph-name="uni25" unicode="&#x25;" d="M1403 1290L254-21L105 97L1253 1407L1403 1290M574 1245Q688 1245 754.50 1164.50Q821 1084 801 970Q781 856 686 775.50Q591 695 477 695Q363 695 297 775.50Q231 856 251 970Q271 1084 365.50 1164.50Q460 1245 574 1245M538 1040Q509 1040 485 1019.50Q461 999 456 970Q451 940 467.50 919.50Q484 899 513 899Q542 899 567 919.50Q592 940 597 970Q602 999 584.50 1019.50Q567 1040 538 1040M1030 692Q1145 692 1211.50 611.50Q1278 531 1257 417Q1237 302 1142.50 221.50Q1048 141 933 141Q819 141 752.50 221.50Q686 302 706 417Q727 531 821.50 611.50Q916 692 1030 692M994 487Q965 487 941 466.50Q917 446 911 417Q906 387 923 366.50Q940 346 969 346Q998 346 1022.50 366.50Q1047 387 1052 417Q1058 446 1040.50 466.50Q1023 487 994 487Z"  horiz-adv-x="1263" vert-adv-y="2048"  />

      
      <glyph glyph-name="uni26" unicode="&#x26;" d="M1256 779Q1339 725 1350 621Q1353 585 1347 551Q1336 484 1290 424Q1219 329 1091 293Q1056 220 950 130Q778-17 571-17Q365-17 244.50 129.50Q124 276 160 483Q197 688 367 841Q467 925 541 934Q414 1090 441 1245Q468 1398 597 1508Q726 1618 881 1618Q1036 1618 1126 1509Q1178 1449 1197 1318L996 1244Q978 1336 955 1364Q914 1412 844 1412Q775 1412 717.50 1363.50Q660 1315 648 1245Q635 1174 677 1119Q719 1064 759.50 1047Q800 1030 934 1029L899 830L777 829Q593 794 490 699.50Q387 605 365 483Q344 361 415 275Q486 189 608 189Q729 189 893 331Q869 354 811 428Q789 452 776 462Q763 471 754 471L753 471Q743 470 737 460Q735 456 734 452Q733 445 735 437L545 322Q530 353 525 392Q523 423 528 453Q538 510 578 563Q639 644 732 668Q765 677 796 677Q853 677 899 647Q939 622 983.50 553.50Q1028 485 1076 479Q1083 478 1089 478Q1127 478 1149 513Q1154 522 1156 532Q1162 564 1122 602L1256 779Z"  horiz-adv-x="1340" vert-adv-y="2048"  />

      
      <glyph glyph-name="uni27" unicode="&#x27;" d="M287 920L406 1597L613 1597L494 920L287 920Z"  horiz-adv-x="458" vert-adv-y="2048"  />

      
      <glyph glyph-name="uni28" unicode="&#x28;" d="M957 1524Q798 1456 687 1342Q499 1148 437 800Q376 451 496 258Q566 143 701 72L665-133Q426-45 324 121Q166 373 241 800Q317 1227 563 1479Q724 1645 994 1733L957 1524Z"  horiz-adv-x="788" vert-adv-y="2048"  />

      
      <glyph glyph-name="uni29" unicode="&#x29;" d="M406 1733Q645 1645 747 1479Q905 1227 830 800Q754 373 508 121Q347-45 77-133L113 72Q273 143 384 258Q572 451 634 800Q695 1148 575 1342Q504 1456 369 1524L406 1733Z"  horiz-adv-x="788" vert-adv-y="2048"  />

      
      <glyph glyph-name="uni2a" unicode="&#x2a;" d="M821 1428L984 1538L1073 1368L863 1228L1024 1089L875 919L750 1029L721 860L514 860L544 1030L379 919L290 1089L501 1228L339 1368L488 1538L614 1427L644 1597L851 1597L821 1428Z"  horiz-adv-x="932" vert-adv-y="2048"  />

      
      <glyph glyph-name="uni2b" unicode="&#x2b;" d="M452 505L125 505L125 712L452 712L452 1039L660 1039L660 712L987 712L987 505L660 505L660 177L452 177L452 505Z"  horiz-adv-x="1112" vert-adv-y="2048"  />

      
      <glyph glyph-name="uni2c" unicode="&#x2c;" d="M487 278L171-202L-26-202L187 278L487 278Z"  horiz-adv-x="537" vert-adv-y="2048"  />

      
      <glyph glyph-name="uni2d" unicode="&#x2d;" d="M250 712L918 712L882 505L214 505L250 712Z"  horiz-adv-x="919" vert-adv-y="2048"  />

      
      <glyph glyph-name="uniad" unicode="&#xad;" d="M250 712L918 712L882 505L214 505L250 712Z"  horiz-adv-x="919" vert-adv-y="2048"  />

      
      <glyph glyph-name="uni2e" unicode="&#x2e;" d="M294 277Q354 277 389.50 235Q425 193 414 133Q403 71 353 29Q303-13 243-13Q184-13 148.50 29Q113 71 124 133Q135 193 185 235Q235 277 294 277Z"  horiz-adv-x="490" vert-adv-y="2048"  />

      
      <glyph glyph-name="uni2f" unicode="&#x2f;" d="M956 1600L1187 1600L180 0L-50 0L956 1600Z"  horiz-adv-x="855" vert-adv-y="2048"  />

      
      <glyph glyph-name="uni30" unicode="&#x30;" d="M1183 1032Q1209 1179 1122.50 1283Q1036 1387 888 1387Q741 1387 618.50 1283Q496 1179 470 1032L383 543Q357 395 443.50 291Q530 187 677 187Q825 187 947.50 291Q1070 395 1096 543L1183 1032M1308 543Q1267 308 1071 141.50Q875-25 639-25Q404-25 267 141.50Q130 308 171 543L258 1032Q299 1267 495 1433.50Q691 1600 926 1600Q1162 1600 1299 1433.50Q1436 1267 1395 1032L1308 543Z"  horiz-adv-x="1289" vert-adv-y="2048"  />

      
      <glyph glyph-name="uni31" unicode="&#x31;" d="M1175 1600L893 0L686 0L921 1330L768 1330L1025 1600L1175 1600Z"  horiz-adv-x="1427" vert-adv-y="2048"  />

      
      <glyph glyph-name="uni32" unicode="&#x32;" d="M153 0Q277 383 461 504.50Q645 626 775.50 712Q906 798 1014 897Q1122 996 1143 1117Q1164 1238 1093.50 1323Q1023 1408 902 1408Q783 1408 682 1323Q596 1250 547 1071L353 1146Q422 1354 560 1472Q733 1620 940 1620Q1149 1620 1269.50 1473Q1390 1326 1353 1117Q1317 911 1148 758Q1041 661 905.50 571.50Q770 482 605 372Q460 277 433 208L1193 208L1156 0L153 0Z"  horiz-adv-x="1308" vert-adv-y="2048"  />

      
      <glyph glyph-name="uni33" unicode="&#x33;" d="M744 824L619 827L656 1032Q792 1034 838 1050.50Q884 1067 944.50 1121Q1005 1175 1017 1245Q1029 1314 989.50 1361.50Q950 1409 881 1409Q813 1409 757 1362Q725 1334 673 1240L494 1316Q560 1451 633 1510Q763 1620 918 1620Q1076 1620 1166.50 1509Q1257 1398 1230 1245Q1203 1089 992 944Q1080 938 1161 843Q1277 689 1241 483Q1204 275 1031.50 127.50Q859-20 650-20Q443-20 322 128Q226 246 231 455L451 530Q437 350 497 277Q568 192 687 192Q808 192 908.50 277Q1009 362 1031 483Q1052 605 983 698Q914 791 744 824Z"  horiz-adv-x="1308" vert-adv-y="2048"  />

      
      <glyph glyph-name="uni34" unicode="&#x34;" d="M1136 1600L1317 1600L1147 639L1288 639L1252 432L1111 432L1035 0L828 0L904 432L249 432L1136 1600M1028 1133L645 639L940 639L1028 1133Z"  horiz-adv-x="1350" vert-adv-y="2048"  />

      
      <glyph glyph-name="uni35" unicode="&#x35;" d="M656 1168Q714 1180 775 1180Q887 1180 984 1144Q1201 1065 1276 852Q1324 720 1299 580Q1284 493 1242 406Q1130 174 897 59Q754-10 615-10Q527-10 442 18Q266 75 163 260L338 422Q420 258 540 220Q595 202 650 202Q738 202 830 246Q979 319 1051 468Q1079 525 1089 581Q1104 668 1074 753Q1024 891 883 943Q822 966 743 966Q636 966 460 913L354 1022L622 1519L636 1600L1222 1600L1186 1393L775 1393L656 1168Z"  horiz-adv-x="1314" vert-adv-y="2048"  />

      
      <glyph glyph-name="uni36" unicode="&#x36;" d="M387 543Q361 395 447.50 291Q534 187 682 187Q829 187 951.50 291Q1074 395 1100 543Q1127 691 1040.50 795Q954 899 807 899Q659 899 536.50 795Q414 691 387 543M586 987Q692 1083 898 1083Q1105 1083 1218 946Q1354 779 1312 543Q1271 308 1075.50 141.50Q880-25 644-25Q409-25 272 141Q140 302 189 588L190 591Q240 874 431 1089Q623 1305 937 1600L1209 1600Q780 1224 586 987Z"  horiz-adv-x="1291" vert-adv-y="2048"  />

      
      <glyph glyph-name="uni37" unicode="&#x37;" d="M1432 1600Q1368 1274 1070 995.50Q772 717 602 524Q432 331 364 0L153 0Q237 409 429 624.50Q621 840 876 1078.50Q1131 1317 1161 1393L401 1393L437 1600L1432 1600Z"  horiz-adv-x="1304" vert-adv-y="2048"  />

      
      <glyph glyph-name="uni38" unicode="&#x38;" d="M680 192Q838 192 938.50 277Q1039 362 1061 483Q1082 605 1013 696Q945 788 791 821Q624 788 524 696Q424 605 403 483Q381 362 451 277Q521 192 680 192M643-20Q397-20 276 127.50Q155 275 192 483Q237 739 554 944Q445 1089 472 1245Q499 1398 628 1509Q757 1620 915 1620L948 1620Q1106 1620 1196.50 1509Q1287 1398 1260 1245Q1233 1089 1061 947Q1317 739 1272 483Q1235 275 1062 127.50Q889-20 643-20M890 1408Q883 1409 878 1409Q810 1409 753.50 1361.50Q697 1314 685 1245Q673 1175 714 1121Q755 1067 793 1051Q813 1043 830 1040Q847 1043 871 1051Q914 1067 974.50 1121Q1035 1175 1047 1245Q1059 1314 1019.50 1361.50Q980 1409 911 1409Q907 1409 900 1408L890 1408Z"  horiz-adv-x="1294" vert-adv-y="2048"  />

      
      <glyph glyph-name="uni39" unicode="&#x39;" d="M1199 1057Q1225 1205 1138.50 1309Q1052 1413 904 1413Q757 1413 634.50 1309Q512 1205 486 1057Q460 909 546 805Q632 701 779 701Q927 701 1050 805Q1173 909 1199 1057M1000 613Q894 517 688 517Q481 517 369 654Q232 821 274 1057Q315 1292 510.50 1458.50Q706 1625 942 1625Q1177 1625 1314 1459Q1446 1298 1397 1012L1396 1009Q1346 726 1155 511Q963 295 649 0L377 0Q807 376 1000 613Z"  horiz-adv-x="1291" vert-adv-y="2048"  />

      
      <glyph glyph-name="uni3a" unicode="&#x3a;" d="M319 277Q379 277 414.50 235Q450 193 439 133Q428 71 378 29Q328-13 268-13Q209-13 173.50 29Q138 71 149 133Q160 193 210 235Q260 277 319 277M420 846Q480 846 515 804Q550 762 539 702Q528 640 478.50 598Q429 556 369 556Q310 556 274 598Q238 640 249 702Q260 762 310.50 804Q361 846 420 846Z"  horiz-adv-x="541" vert-adv-y="2048"  />

      
      <glyph glyph-name="uni3b" unicode="&#x3b;" d="M560 278L244-202L47-202L260 278L560 278M435 846Q494 846 529.50 804Q565 762 554 702Q543 640 493 598Q443 556 384 556Q324 556 288.50 598Q253 640 264 702Q275 762 325 804Q375 846 435 846Z"  horiz-adv-x="635" vert-adv-y="2048"  />

      
      <glyph glyph-name="uni037E" unicode="&#x037E;" d="M560 278L244-202L47-202L260 278L560 278M435 846Q494 846 529.50 804Q565 762 554 702Q543 640 493 598Q443 556 384 556Q324 556 288.50 598Q253 640 264 702Q275 762 325 804Q375 846 435 846Z"  horiz-adv-x="635" vert-adv-y="2048"  />

      
      <glyph glyph-name="uni3c" unicode="&#x3c;" d="M1403 107L100 582L1403 1056L1403 835L706 582L1403 328L1403 107Z"  horiz-adv-x="1504" vert-adv-y="2048"  />

      
      <glyph glyph-name="uni3d" unicode="&#x3d;" d="M125 860L987 860L987 652L125 652L125 860M125 564L987 564L987 357L125 357L125 564Z"  horiz-adv-x="1112" vert-adv-y="2048"  />

      
      <glyph glyph-name="uni3e" unicode="&#x3e;" d="M100 328L797 582L100 835L100 1056L1403 582L100 107L100 328Z"  horiz-adv-x="1504" vert-adv-y="2048"  />

      
      <glyph glyph-name="uni3f" unicode="&#x3f;" d="M337 1186Q350 1260 398 1332Q491 1472 646 1523Q714 1545 776 1545Q858 1545 930 1507Q1058 1440 1084 1295Q1094 1232 1083 1170Q1068 1087 1016 1008Q930 878 770 769Q659 684 591 579Q550 517 538 456L332 456Q352 564 421 668Q531 835 710 954Q799 1029 845 1098Q869 1135 875 1171Q880 1198 876 1226Q863 1292 807 1322Q774 1339 738 1339Q711 1339 680 1329Q610 1306 569 1244Q556 1225 546 1187L325 1119L337 1186M542 133Q531 71 480.50 29Q430-13 371-13Q311-13 276 29Q241 71 252 133Q263 193 312.50 235Q362 277 422 277Q481 277 517 235Q553 193 542 133Z"  horiz-adv-x="1028" vert-adv-y="2048"  />

      
      <glyph glyph-name="uni40" unicode="&#x40;" d="M1103 515L1122 623Q1120 668 1087 708Q1040 766 959 766Q878 766 810.50 708Q743 650 729 569Q714 487 761 430Q808 373 889 373Q971 373 1038 430Q1086 470 1103 515M1062 294Q995 212 859 212Q695 212 595.50 309Q496 406 525 570Q554 733 688.50 835Q823 937 987 937Q1133 937 1163 863L1172 915L1371 915L1281 417L1281 414Q1271 362 1287 362Q1301 362 1334 398Q1405 479 1435 646Q1464 813 1359.50 939Q1255 1065 1009 1065Q764 1065 616.50 939Q469 813 429 587Q389 361 509 215.50Q629 70 834 70Q975 70 1087 133L1203-16Q990-129 799-129Q512-129 343 75.50Q174 280 225 568Q275 855 516.50 1059.50Q758 1264 1045 1264Q1334 1264 1501 1059Q1668 854 1631 643Q1594 432 1462 301Q1353 194 1244 194Q1220 194 1196 200Q1062 229 1062 294Z"  horiz-adv-x="1643" vert-adv-y="2048"  />

      
      <glyph glyph-name="uni41" unicode="&#x41;" d="M961 773L890 1148L688 773L961 773M1026 1600L1326 0L1106 0L1000 566L576 566L271 0L50 0L914 1600L1026 1600Z"  horiz-adv-x="1376" vert-adv-y="2048"  />

      
      <glyph glyph-name="uni42" unicode="&#x42;" d="M756 1600Q895 1600 976.50 1501.50Q1058 1403 1034 1264Q1009 1121 859 1087Q960 1072 1069 939Q1178 806 1137 571Q1095 336 900 165Q717 4 560 2L560 0L150 0L432 1600L756 1600M520 927L394 208L597 208L597 211Q662 215 774 314Q898 422 925 571Q951 718 864.50 822.50Q778 927 631 927L520 927M603 1393L558 1140L693 1140Q740 1144 778 1175Q820 1208 830 1264Q840 1320 809 1356.50Q778 1393 720 1393L603 1393Z"  horiz-adv-x="1126" vert-adv-y="2048"  />

      
      <glyph glyph-name="uni43" unicode="&#x43;" d="M1455 381L1585 242Q1256-17 939-17Q600-17 403 222Q206 461 266 800Q325 1138 606.50 1378Q888 1618 1227 1618Q1544 1618 1782 1359L1602 1218Q1422 1408 1190 1408Q939 1408 729 1230Q519 1052 475 800Q430 547 577 369Q724 191 975 191Q1207 191 1455 381Z"  horiz-adv-x="1642" vert-adv-y="2048"  />

      
      <glyph glyph-name="uni44" unicode="&#x44;" d="M602 1389L394 210Q641 210 827 369Q1036 547 1081 800Q1125 1052 979 1231Q849 1389 602 1389M584 1600Q974 1598 1153 1379Q1350 1138 1290 800Q1230 461 949 221Q692 2 302 0L150 0L432 1600L584 1600Z"  horiz-adv-x="1250" vert-adv-y="2048"  />

      
      <glyph glyph-name="uni45" unicode="&#x45;" d="M1294 1600L1258 1393L603 1393L516 904L1171 904L1135 697L480 697L394 208L1049 208L1012 0L150 0L432 1600L1294 1600Z"  horiz-adv-x="1137" vert-adv-y="2048"  />

      
      <glyph glyph-name="uni46" unicode="&#x46;" d="M1202 1600L1166 1393L603 1393L516 904L1079 904L1043 697L480 697L357 0L150 0L432 1600L1202 1600Z"  horiz-adv-x="1045" vert-adv-y="2048"  />

      
      <glyph glyph-name="uni47" unicode="&#x47;" d="M1545 219Q1257-17 939-17Q600-17 403 222Q206 461 266 800Q325 1138 606.50 1378Q888 1618 1227 1618Q1544 1618 1782 1359L1602 1218Q1422 1408 1190 1408Q939 1408 729 1230Q519 1052 475 800Q430 547 577 369Q724 191 975 191Q1191 191 1353 305L1439 788L1646 788L1545 219Z"  horiz-adv-x="1668" vert-adv-y="2048"  />

      
      <glyph glyph-name="uni48" unicode="&#x48;" d="M474 662L357 0L150 0L432 1600L639 1600L510 869L1004 869L1133 1600L1340 1600L1058 0L851 0L968 662L474 662Z"  horiz-adv-x="1208" vert-adv-y="2048"  />

      
      <glyph glyph-name="uni49" unicode="&#x49;" d="M659 1600L377 0L170 0L452 1600L659 1600Z"  horiz-adv-x="548" vert-adv-y="2048"  />

      
      <glyph glyph-name="uni4a" unicode="&#x4a;" d="M841 343Q812 177 705 85Q591-13 453-13Q316-13 236.50 84.50Q157 182 186 344L361 408Q362 256 399 221Q426 194 480 194L484 194Q541 195 585 231Q620 262 636 352L856 1600L1063 1600L841 343Z"  horiz-adv-x="937" vert-adv-y="2048"  />

      
      <glyph glyph-name="uni4b" unicode="&#x4b;" d="M490 755L357 0L150 0L432 1600L639 1600L550 1096L1017 1600L1279 1600L672 942L1117 0L866 0L507 772L490 755Z"  horiz-adv-x="1206" vert-adv-y="2048"  />

      
      <glyph glyph-name="uni4c" unicode="&#x4c;" d="M150 0L432 1600L639 1600L394 208L966 208L929 0L150 0Z"  horiz-adv-x="1019" vert-adv-y="2048"  />

      
      <glyph glyph-name="uni4d" unicode="&#x4d;" d="M670 1600L1031 703L1706 1600L1895 1600L1613 0L1406 0L1610 1156L958 292L610 1156L406 0L199 0L481 1600L670 1600Z"  horiz-adv-x="1812" vert-adv-y="2048"  />

      
      <glyph glyph-name="uni4e" unicode="&#x4e;" d="M432 1600L621 1600L1080 458L1281 1600L1489 1600L1207 0L1026 0L561 1156L357 0L150 0L432 1600Z"  horiz-adv-x="1357" vert-adv-y="2048"  />

      
      <glyph glyph-name="uni4f" unicode="&#x4f;" d="M1230 1621Q1569 1621 1767 1381Q1965 1141 1905 802Q1845 463 1562.50 223Q1280-17 941-17Q602-17 404.50 223Q207 463 267 802Q327 1141 609 1381Q891 1621 1230 1621M1193 1412Q940 1412 730 1233.50Q520 1055 476 802Q431 549 578.50 370Q726 191 978 191Q1231 191 1441 370Q1651 549 1696 802Q1740 1055 1593 1233.50Q1446 1412 1193 1412Z"  horiz-adv-x="1889" vert-adv-y="2048"  />

      
      <glyph glyph-name="uni50" unicode="&#x50;" d="M447 512L357 0L150 0L432 1600L886 1600Q1075 1574 1184 1441Q1315 1281 1275 1057Q1236 831 1048.50 671.50Q861 512 636 512L447 512M602 1392L484 720L673 720Q811 720 927 818.50Q1043 917 1067 1057Q1092 1196 1010.50 1294Q929 1392 791 1392L602 1392Z"  horiz-adv-x="1145" vert-adv-y="2048"  />

      
      <glyph glyph-name="uni51" unicode="&#x51;" d="M1193 1412Q940 1412 730 1233.50Q520 1055 476 802Q431 549 578.50 370Q726 191 978 191Q1231 191 1441 370Q1651 549 1696 802Q1740 1055 1593 1233.50Q1446 1412 1193 1412M1296 55Q1317 41 1338 23Q1402-14 1425-22Q1436-25 1446-25Q1463-25 1482-15Q1510 0 1523 29Q1528 38 1544 103L1753 103Q1728 5 1714-27Q1662-138 1551-194Q1481-231 1411-231Q1372-231 1335-220Q1274-203 1179-134Q1101-89 1069-79Q1051-74 1034-74Q1004-74 973-90Q923-116 900-168Q897-173 881-234L672-234Q697-139 710-110Q738-49 781-2Q553 43 405 223Q207 463 267 802Q327 1141 609 1381Q891 1621 1230 1621Q1569 1621 1767 1381Q1965 1141 1905 802Q1845 463 1563 223Q1436 115 1296 55Z"  horiz-adv-x="1889" vert-adv-y="2048"  />

      
      <glyph glyph-name="uni52" unicode="&#x52;" d="M602 1392L484 720L673 720Q811 720 927 818.50Q1043 917 1067 1057Q1092 1196 1010.50 1294Q929 1392 791 1392L602 1392M636 512L447 512L357 0L150 0L432 1600L886 1600Q1075 1574 1184 1441Q1315 1281 1275 1057Q1236 831 1048 671Q919 561 858 547L1117 0L866 0L636 512Z"  horiz-adv-x="1171" vert-adv-y="2048"  />

      
      <glyph glyph-name="uni53" unicode="&#x53;" d="M702 821Q542 878 455 983.50Q368 1089 396 1245Q423 1398 552 1508Q681 1618 837 1618Q991 1618 1082 1509Q1133 1449 1152 1318L951 1244Q933 1336 910 1364Q869 1412 800 1412Q730 1412 672.50 1363.50Q615 1315 603 1245Q591 1175 631 1126Q676 1072 766 1027Q943 966 1051 835Q1172 690 1136 483Q1099 276 926.50 129.50Q754-17 548-17Q341-17 221 130Q125 247 130 453L344 526Q332 349 393 275Q464 189 585 189Q706 189 807 275Q908 361 930 483Q951 604 880 690Q813 772 702 821Z"  horiz-adv-x="1101" vert-adv-y="2048"  />

      
      <glyph glyph-name="uni54" unicode="&#x54;" d="M877 1393L631 0L423 0L669 1393L296 1393L332 1600L1286 1600L1250 1393L877 1393Z"  horiz-adv-x="1054" vert-adv-y="2048"  />

      
      <glyph glyph-name="uni55" unicode="&#x55;" d="M1312 1600L1520 1600L1321 473Q1260 280 1105 147Q917-13 692-13Q467-13 335.50 146.50Q204 306 244 531L432 1600L640 1600L452 531Q427 393 508.50 294.50Q590 196 729 196Q869 196 984 294Q1099 392 1124 531L1312 1600Z"  horiz-adv-x="1388" vert-adv-y="2048"  />

      
      <glyph glyph-name="uni56" unicode="&#x56;" d="M631 0L332 1600L552 1600L767 453L1387 1600L1608 1600L743 0L631 0Z"  horiz-adv-x="1376" vert-adv-y="2048"  />

      
      <glyph glyph-name="uni57" unicode="&#x57;" d="M792 299L1021 1600L1228 1600L999 299Q1006 282 1025 257Q1079 195 1168 195Q1257 195 1333.50 258.50Q1410 322 1425 411L1635 1600L1843 1600L1632 403Q1598 234 1456 113Q1309-13 1132-13Q956-13 862 111Q725-13 549-13Q372-13 270 113Q169 233 196 403L407 1600L614 1600L404 411Q389 322 442.50 258.50Q496 195 585 195Q675 195 750 257Q780 282 792 299Z"  horiz-adv-x="1686" vert-adv-y="2048"  />

      
      <glyph glyph-name="uni58" unicode="&#x58;" d="M50 0L707 873L416 1600L654 1600L862 1079L1256 1600L1494 1600L945 873L1296 0L1058 0L790 667L288 0L50 0Z"  horiz-adv-x="1347" vert-adv-y="2048"  />

      
      <glyph glyph-name="uni59" unicode="&#x59;" d="M716 642L332 1600L570 1600L860 876L1407 1600L1646 1600L923 642L810 0L603 0L716 642Z"  horiz-adv-x="1414" vert-adv-y="2048"  />

      
      <glyph glyph-name="uni5a" unicode="&#x5a;" d="M1200 1393L442 1393L478 1600L1594 1600L544 208L1304 208L1267 0L150 0L1200 1393Z"  horiz-adv-x="1463" vert-adv-y="2048"  />

      
      <glyph glyph-name="uni5b" unicode="&#x5b;" d="M307-138L509-138L473-345L64-345L406 1596L815 1596L779 1389L577 1389L307-138Z"  horiz-adv-x="659" vert-adv-y="2048"  />

      
      <glyph glyph-name="uni5c" unicode="&#x5c;" d="M903 0L673 0L231 1596L462 1596L903 0Z"  horiz-adv-x="853" vert-adv-y="2048"  />

      
      <glyph glyph-name="uni5d" unicode="&#x5d;" d="M572 1389L370 1389L406 1596L815 1596L473-345L64-345L100-138L302-138L572 1389Z"  horiz-adv-x="659" vert-adv-y="2048"  />

      
      <glyph glyph-name="uni5e" unicode="&#x5e;" d="M623 1596L978 981L739 981L540 1326L340 981L100 981L456 1596L623 1596Z"  horiz-adv-x="1078" vert-adv-y="2048"  />

      
      <glyph glyph-name="uni5f" unicode="&#x5f;" d="M42 96L1086 96L1050-110L6-110L42 96Z"  horiz-adv-x="1094" vert-adv-y="2048"  />

      
      <glyph glyph-name="uni60" unicode="&#x60;" d="M768 1128L571 1128L348 1407L600 1407L768 1128Z"  horiz-adv-x="669" vert-adv-y="2048"  />

      
      <glyph glyph-name="uni61" unicode="&#x61;" d="M1124 466L1151 618Q1150 715 1086 794Q999 898 852 898Q704 898 581.50 794Q459 690 433 542Q407 395 493 290.50Q579 186 727 186Q874 186 997 290Q1089 369 1124 466M1211 957L1223 1029L1431 1029L1250-1L1042-1L1065 128Q887-27 689-27Q453-27 316 139.50Q179 306 221 542Q262 778 458 944.50Q654 1111 890 1111Q1088 1111 1211 957Z"  horiz-adv-x="1401" vert-adv-y="2048"  />

      
      <glyph glyph-name="uni62" unicode="&#x62;" d="M467 623L438 462Q441 368 504 291Q591 187 739 187Q887 187 1010 291Q1133 395 1159 543Q1185 690 1099 795Q1013 900 865 900Q717 900 593 795Q503 718 467 623M380 128L357 0L150 0L432 1600L639 1600L526 958Q703 1113 902 1113Q1138 1113 1275 946Q1412 779 1371 543Q1329 307 1133 140Q937-27 701-27Q502-27 380 128Z"  horiz-adv-x="1400" vert-adv-y="2048"  />

      
      <glyph glyph-name="uni63" unicode="&#x63;" d="M1027 353L1221 279Q1127 174 1087 140Q890-27 654-27Q419-27 281.50 140Q144 307 186 543Q227 779 423.50 946Q620 1113 855 1113Q1091 1113 1229 946Q1257 912 1315 809L1094 733Q1063 782 1051 796Q966 900 818 900Q671 900 548 795.50Q425 691 399 543Q373 396 459 291.50Q545 187 692 187Q840 187 963 291Q979 305 1027 353Z"  horiz-adv-x="1262" vert-adv-y="2048"  />

      
      <glyph glyph-name="uni64" unicode="&#x64;" d="M1125 466L1152 619Q1151 716 1086 795Q1001 900 853 900Q705 900 582 795Q459 690 433 543Q407 395 493 291Q579 187 727 187Q875 187 997 291Q1090 370 1125 466M1212 958L1325 1600L1533 1600L1251 0L1043 0L1065 128Q888-27 689-27Q453-27 316 140Q179 307 221 543Q262 779 458 946Q654 1113 890 1113Q1089 1113 1212 958Z"  horiz-adv-x="1401" vert-adv-y="2048"  />

      
      <glyph glyph-name="uni65" unicode="&#x65;" d="M511 233Q555 187 692 187Q840 187 963 291Q979 305 1027 353L1221 279Q1127 174 1087 140Q890-27 654-27Q419-27 281.50 140Q144 307 186 543Q227 779 423.50 946Q620 1113 855 1113Q1057 1113 1188 991Q1209 970 1229 946Q1237 936 1275 883L1152 778L511 233M970 873Q940 900 818 900Q671 900 548 795.50Q425 691 399 543Q377 422 398 386L970 873Z"  horiz-adv-x="1262" vert-adv-y="2048"  />

      
      <glyph glyph-name="uni66" unicode="&#x66;" d="M535 823L390-1L182-1L327 823L235 823L272 1030L364 1030L396 1215Q426 1343 533 1435Q643 1523 767 1523Q829 1523 947 1480L844 1284Q762 1321 739 1321Q697 1321 652 1286Q613 1253 603 1207L572 1030L757 1030L720 823L535 823Z"  horiz-adv-x="626" vert-adv-y="2048"  />

      
      <glyph glyph-name="uni67" unicode="&#x67;" d="M1152 623Q1149 718 1086 795Q1000 900 852 900Q704 900 581 795Q458 690 433 543Q406 395 492.50 290.50Q579 186 727 186Q875 186 997 290Q1087 367 1123 460L1152 623M1212 958L1224 1029L1432 1029L1297 264Q1244-36 1053-199Q860-346 624-346Q388-346 247-199Q219-165 162-61L381 13Q413-35 424-49Q511-153 658-153Q905-153 1057 171Q927-17 691-17Q455-17 317 145Q179 307 221 543Q262 779 458 945.50Q654 1112 890 1112Q1089 1112 1212 958Z"  horiz-adv-x="1405" vert-adv-y="2048"  />

      
      <glyph glyph-name="uni68" unicode="&#x68;" d="M432 1600L640 1600L520 918Q636 1085 801 1085Q966 1085 1044 966.50Q1122 848 1093 669L975 0L768 0L885 661Q900 750 861 813.50Q822 877 713 877Q584 877 488 739L358 0L150 0L432 1600Z"  horiz-adv-x="1125" vert-adv-y="2048"  />

      
      <glyph glyph-name="uni69" unicode="&#x69;" d="M555 1029L374 0L167 0L348 1029L555 1029M526 1452Q586 1452 621.50 1410Q657 1368 646 1307Q636 1246 585.50 1204Q535 1162 475 1162Q416 1162 380.50 1204Q345 1246 355 1307Q366 1368 416.50 1410Q467 1452 526 1452Z"  horiz-adv-x="541" vert-adv-y="2048"  />

      
      <glyph glyph-name="uni6a" unicode="&#x6a;" d="M47-10Q161 2 172 60L343 1029L550 1029L379 62Q334-191 11-216L47-10M520 1452Q580 1452 615.50 1410Q651 1368 641 1307Q630 1246 579.50 1204Q529 1162 469 1162Q410 1162 374.50 1204Q339 1246 350 1307Q360 1368 410.50 1410Q461 1452 520 1452Z"  horiz-adv-x="561" vert-adv-y="2048"  />

      
      <glyph glyph-name="uni6b" unicode="&#x6b;" d="M966 1029L627 685L894 0L647 0L457 513L447 502L358 0L150 0L400 1415L608 1415L505 833L699 1029L966 1029Z"  horiz-adv-x="944" vert-adv-y="2048"  />

      
      <glyph glyph-name="uni6c" unicode="&#x6c;" d="M640 1601L358 0L150 0L432 1601L640 1601Z"  horiz-adv-x="508" vert-adv-y="2048"  />

      
      <glyph glyph-name="uni6d" unicode="&#x6d;" d="M331 1029L538 1029L522 933Q608 1084 779 1084Q949 1084 940 912Q1019 1084 1240 1084Q1458 1084 1411 819L1267 0L1059 0L1187 724Q1213 876 1090 876Q1039 876 996 840Q953 804 916 598L811 0L604 0L733 724Q759 876 635 876Q584 876 541 840Q504 809 476 676L357 0L150 0L331 1029Z"  horiz-adv-x="1418" vert-adv-y="2048"  />

      
      <glyph glyph-name="uni6e" unicode="&#x6e;" d="M491 753L358 0L150 0L331 1029L539 1029L518 909Q614 1085 810 1085Q977 1085 1055 966.50Q1133 848 1104 669L986 0L779 0L896 661Q911 750 857.50 813.50Q804 877 714 877Q625 877 549 815Q506 778 491 753Z"  horiz-adv-x="1139" vert-adv-y="2048"  />

      
      <glyph glyph-name="uni6f" unicode="&#x6f;" d="M855 1113Q1091 1113 1228 946Q1365 779 1324 543Q1282 307 1086 140Q890-27 654-27Q419-27 281.50 140Q144 307 186 543Q227 779 423.50 946Q620 1113 855 1113M818 900Q670 900 547 795Q424 690 398 543Q372 395 458 291Q544 187 692 187Q840 187 963 291Q1086 395 1112 543Q1138 690 1052 795Q966 900 818 900Z"  horiz-adv-x="1318" vert-adv-y="2048"  />

      
      <glyph glyph-name="uni70" unicode="&#x70;" d="M467 623L438 462Q441 367 505 290Q591 186 739 186Q887 186 1010 290.50Q1133 395 1159 543Q1185 690 1099 795Q1013 900 865 900Q717 900 594 795Q503 718 467 623M380 128L296-346L89-346L331 1029L538 1029L522 936Q703 1112 902 1112Q1138 1112 1275 945.50Q1412 779 1371 543Q1329 307 1133 140Q937-27 701-27Q502-27 380 128Z"  horiz-adv-x="1375" vert-adv-y="2048"  />

      
      <glyph glyph-name="uni71" unicode="&#x71;" d="M1100 466L1127 619Q1126 716 1061 795Q976 900 828 900Q680 900 557 795Q434 690 408 543Q382 395 468 290.50Q554 186 702 186Q850 186 972 290Q1065 369 1100 466M1187 958L1199 1029L1407 1029L1165-346L957-346L1040 128Q863-27 664-27Q428-27 291 140Q154 307 196 543Q237 779 433 945.50Q629 1112 865 1112Q1064 1112 1187 958Z"  horiz-adv-x="1376" vert-adv-y="2048"  />

      
      <glyph glyph-name="uni72" unicode="&#x72;" d="M514 890Q658 1047 828 1055L790 840Q676 834 597 767Q479 667 450 529L357 0L150 0L331 1029L538 1029L514 890Z"  horiz-adv-x="693" vert-adv-y="2048"  />

      
      <glyph glyph-name="uni73" unicode="&#x73;" d="M381 286Q382 240 397 221Q428 185 479 185Q530 185 573 221Q616 257 625 310Q634 361 604 397Q584 422 511 474Q410 535 371 582Q303 664 324 779Q344 895 440.50 977.50Q537 1060 653 1060Q769 1060 832 982Q878 927 881 859L670 801Q667 826 661 834Q647 852 617 852Q587 852 561.50 830.50Q536 809 531 779Q525 749 543 728Q559 710 618 667Q730 599 776 543Q856 445 832 310Q808 172 694 74.50Q580-23 442-23Q305-23 226 75Q170 142 167 242L381 286Z"  horiz-adv-x="882" vert-adv-y="2048"  />

      
      <glyph glyph-name="uni74" unicode="&#x74;" d="M456 1029L525 1415L732 1415L663 1029L848 1029L812 822L627 822L482 0L275 0L420 822L235 822L271 1029L456 1029Z"  horiz-adv-x="758" vert-adv-y="2048"  />

      
      <glyph glyph-name="uni75" unicode="&#x75;" d="M583-14Q388-14 290 105Q192 224 221 403L331 1029L539 1029L430 411Q414 322 468 258Q522 194 619 194Q708 194 784.50 257.50Q861 321 877 411L986 1029L1193 1029L1083 403Q1048 224 909 105Q769-14 583-14Z"  horiz-adv-x="1162" vert-adv-y="2048"  />

      
      <glyph glyph-name="uni76" unicode="&#x76;" d="M541 0L231 1029L465 1029L656 361L1084 1029L1318 1029L645 0L541 0Z"  horiz-adv-x="1188" vert-adv-y="2048"  />

      
      <glyph glyph-name="uni77" unicode="&#x77;" d="M658 305L785 1029L992 1029L868 322Q858 267 888.50 230.50Q919 194 970 194Q1093 194 1120 347L1240 1029L1448 1029L1321 308Q1293 176 1185 84Q1070-14 933-14Q795-14 723 82Q615-14 478-14Q340-14 261 84Q185 176 204 308L331 1029L538 1029L418 347Q391 194 515 194Q566 194 610 230Q646 261 658 305Z"  horiz-adv-x="1418" vert-adv-y="2048"  />

      
      <glyph glyph-name="uni78" unicode="&#x78;" d="M1087 1029L733 559L956 0L717 0L577 346L316 0L75 0L497 559L308 1029L547 1029L652 772L846 1029L1087 1029Z"  horiz-adv-x="1031" vert-adv-y="2048"  />

      
      <glyph glyph-name="uni79" unicode="&#x79;" d="M342-346L123-346L498 229L256 1029L489 1029L651 466L1011 1029L1243 1029L342-346Z"  horiz-adv-x="1139" vert-adv-y="2048"  />

      
      <glyph glyph-name="uni7a" unicode="&#x7a;" d="M763 822L340 822L376 1029L1156 1029L543 208L1002 208L965 0L150 0L763 822Z"  horiz-adv-x="1125" vert-adv-y="2048"  />

      
      <glyph glyph-name="uni7b" unicode="&#x7b;" d="M258 749L421 749Q513 802 556 896Q582 954 593 1020Q600 1056 601 1093Q601 1163 612 1227Q624 1297 651 1359Q709 1487 837 1553Q919 1596 1001 1596Q1023 1596 1096 1584L1061 1389Q980 1403 969 1403Q937 1403 903 1386Q852 1360 829 1308Q811 1265 801 1209Q796 1184 794 1160Q796 1087 783 1013Q768 927 732 845Q655 675 576 623Q637 576 655 406Q662 324 646 238Q633 164 606 91Q599 67 595 42Q585-14 588-57Q593-108 635-134Q665-152 697-152Q708-152 791-142L758-333Q681-345 659-345Q577-345 510-302Q405-236 393-107Q388-45 400 25Q411 89 436 158Q448 195 454 231Q466 297 461 355Q451 449 377 502L214 502L258 749Z"  horiz-adv-x="941" vert-adv-y="2048"  />

      
      <glyph glyph-name="uni7c" unicode="&#x7c;" d="M638 1596L296-345L89-345L431 1596L638 1596Z"  horiz-adv-x="507" vert-adv-y="2048"  />

      
      <glyph glyph-name="uni7d" unicode="&#x7d;" d="M904 502L741 502Q648 449 605 355Q580 297 568 231Q562 195 560 158Q561 89 550 25Q538-45 510-107Q453-236 324-302Q243-345 161-345Q139-345 66-333L100-142Q179-152 190-152Q223-152 259-134Q310-108 332-57Q351-14 361 42Q366 67 368 91Q366 164 379 238Q394 324 429 406Q506 576 585 623Q524 675 507 845Q500 927 515 1013Q528 1087 556 1160Q562 1184 567 1209Q577 1265 572 1308Q569 1360 527 1386Q499 1403 467 1403Q456 1403 370 1389L404 1584Q481 1596 503 1596Q585 1596 652 1553Q757 1487 768 1359Q774 1297 762 1227Q751 1163 725 1093Q714 1056 708 1020Q696 954 701 896Q710 802 785 749L948 749L904 502Z"  horiz-adv-x="941" vert-adv-y="2048"  />

      
      <glyph glyph-name="uni7e" unicode="&#x7e;" d="M692 908Q851 816 912 816L921 816Q962 829 979 872Q988 895 988 992L1201 959Q1191 848 1170 794Q1117 665 989 622Q956 612 918 612Q805 612 631 711Q471 803 410 803L403 803Q362 790 344 748Q335 722 332 627L125 660Q130 770 152 825Q205 954 335 997Q367 1007 405 1007Q519 1007 692 908Z"  horiz-adv-x="1326" vert-adv-y="2048"  />

      
      <glyph glyph-name="unia1" unicode="&#xa1;" d="M400 739Q340 739 305 781Q270 823 281 883Q292 945 341.50 987Q391 1029 451 1029Q510 1029 546 987Q582 945 571 883Q560 823 509.50 781Q459 739 400 739M65-584L267 561L474 561L272-584L65-584Z"  horiz-adv-x="541" vert-adv-y="2048"  />

      
      <glyph glyph-name="unia2" unicode="&#xa2;" d="M776 773Q819 774 909 851Q921 861 970 909L1156 836Q1062 734 1030 706Q869 569 739 567L714 425L507 425L535 583Q449 599 363 705Q248 843 283 1039Q317 1234 480 1373Q604 1478 696 1495L724 1653L931 1653L906 1511Q1034 1509 1147 1372Q1169 1344 1229 1244L1016 1169Q984 1218 976 1229Q913 1304 869 1305L776 773M659 1278Q515 1190 489 1039Q464 899 573 797L659 1278Z"  horiz-adv-x="1110" vert-adv-y="2048"  />

      
      <glyph glyph-name="unia3" unicode="&#xa3;" d="M664 509Q624 282 480 157Q571 209 668 209Q694 209 721 205Q846 187 920 187Q986 187 1113 218L1116 14Q971-20 883-20Q794-20 706 1Q625 19 563 19Q511 19 474 7Q376-26 234-92L115 87Q295 225 327 257Q430 358 459 511L240 511L276 717L449 717Q449 720 423 799Q345 975 359 1139Q361 1159 365 1180Q391 1330 511 1449Q645 1581 825 1598Q846 1599 865 1599Q1015 1599 1117 1500Q1230 1386 1216 1213Q1215 1189 1211 1166Q1199 1095 1131 984L950 1049Q996 1138 1003 1175Q1005 1186 1006 1196Q1013 1283 955 1340Q904 1390 829 1390Q818 1390 808 1389Q718 1382 649 1314Q589 1254 576 1180Q574 1168 573 1157Q564 1065 599 946Q659 814 666 717L860 717L824 511L664 509Z"  horiz-adv-x="1214" vert-adv-y="2048"  />

      
      <glyph glyph-name="unia4" unicode="&#xa4;" d="M641 1491Q725 1551 880 1551Q1036 1551 1099 1491L1254 1623L1374 1476L1219 1344Q1267 1271 1239 1115Q1212 960 1138 887L1247 755L1075 608L966 740Q883 680 727 680Q572 680 508 740L354 608L233 755L388 887Q341 960 368 1115Q396 1271 469 1344L360 1476L533 1623L641 1491M973 1299Q922 1344 844 1344Q766 1344 700 1299Q684 1289 671 1278Q657 1266 645 1252Q588 1193 574 1115Q561 1037 596 979Q603 966 614 954Q624 941 635 932Q685 887 763 887Q841 887 908 932Q923 942 937 954Q951 965 962 979Q1019 1037 1032 1115Q1046 1193 1011 1252Q1003 1266 994 1278Q985 1288 973 1299Z"  horiz-adv-x="1214" vert-adv-y="2048"  />

      
      <glyph glyph-name="unia5" unicode="&#xa5;" d="M669 760L332 1600L570 1600L860 876L1407 1600L1646 1600L1012 760L1272 760L1235 552L907 552L891 464L1219 464L1183 257L855 257L810 0L603 0L648 257L321 257L357 464L684 464L700 552L373 552L410 760L669 760Z"  horiz-adv-x="1414" vert-adv-y="2048"  />

      
      <glyph glyph-name="unia6" unicode="&#xa6;" d="M638 1596L479 691L272 691L431 1596L638 1596M456 560L296-345L89-345L249 560L456 560Z"  horiz-adv-x="507" vert-adv-y="2048"  />

      
      <glyph glyph-name="unia7" unicode="&#xa7;" d="M982 497L983 497Q988 497 1008 611Q1029 732 959 818Q891 900 780 949Q621 1005 538 1107L510 1120L509 1120Q503 1120 482 1005Q461 884 532 799Q599 716 710 668Q869 611 953 510L982 497M475 1371Q502 1524 630.50 1633.50Q759 1743 914 1743Q1069 1743 1159 1634Q1211 1575 1230 1444L1029 1370Q1011 1462 989 1490Q948 1538 878 1538Q809 1538 751.50 1489.50Q694 1441 682 1371Q670 1302 710 1253Q756 1199 845 1154Q1021 1093 1129 962Q1249 817 1213 611Q1176 404 1015 245Q989 93 860.50-17Q732-127 576-127Q422-127 331-18Q279 41 261 172L461 246Q479 154 502 126Q543 78 612 78Q681 78 738.50 126.50Q796 175 808 245Q820 314 780 363Q736 417 646 462Q469 523 361 654Q241 799 277 1005Q314 1212 475 1371Z"  horiz-adv-x="1205" vert-adv-y="2048"  />

      
      <glyph glyph-name="unia8" unicode="&#xa8;" d="M423 1438Q482 1438 517.50 1396Q553 1354 543 1294Q532 1233 481.50 1191Q431 1149 372 1149Q312 1149 277 1191Q242 1233 253 1294Q263 1354 313 1396Q363 1438 423 1438M799 1438Q858 1438 893.50 1396Q929 1354 919 1294Q908 1233 857.50 1191Q807 1149 748 1149Q688 1149 653 1191Q618 1233 629 1294Q639 1354 689 1396Q739 1438 799 1438Z"  horiz-adv-x="716" vert-adv-y="2048"  />

      
      <glyph glyph-name="unia9" unicode="&#xa9;" d="M893 542L1074 476Q1005 380 983 358Q876 250 724 250Q572 250 465 357.50Q358 465 358 617Q358 768 465 875.50Q572 983 724 983Q876 983 983 876Q1005 854 1074 758L893 691Q856 738 849 745Q798 796 724 796Q650 796 597.50 743.50Q545 691 545 617Q545 543 597.50 490.50Q650 438 724 438Q798 438 850 490Q857 497 893 542M714 1232Q968 1232 1148 1052Q1328 872 1328 617Q1328 362 1148 182Q968 2 714 2Q459 2 279 182Q99 362 99 617Q99 872 279 1052Q459 1232 714 1232M714 1042Q537 1042 412.50 917.50Q288 793 288 617Q288 441 412.50 316Q537 191 714 191Q890 191 1014.50 316Q1139 441 1139 617Q1139 793 1014.50 917.50Q890 1042 714 1042Z"  horiz-adv-x="1433" vert-adv-y="2048"  />

      
      <glyph glyph-name="uniaa" unicode="&#xaa;" d="M944 1213L960 1304Q959 1362 915 1410Q857 1472 760 1472Q662 1472 582.50 1409.50Q503 1347 487 1259Q471 1170 529 1107.50Q587 1045 685 1045Q782 1045 862 1107Q922 1155 944 1213M996 1508L1004 1551L1141 1551L1032 933L895 933L908 1010Q793 917 662 917Q507 917 414.50 1017Q322 1117 347 1259Q372 1400 499.50 1500Q627 1600 783 1600Q913 1600 996 1508M1194 1347L1351 1347L1226 640L447 640L475 797L1097 797L1194 1347Z"  horiz-adv-x="1019" vert-adv-y="2048"  />

      
      <glyph glyph-name="uniab" unicode="&#xab;" d="M186 489L831 1070L782 792L446 489L675 185L626-95L186 489M664 489L1309 1070L1260 792L924 489L1153 185L1104-95L664 489Z"  horiz-adv-x="1222" vert-adv-y="2048"  />

      
      <glyph glyph-name="uniae" unicode="&#xae;" d="M809 831Q813 837 836 859Q932 956 932 1091Q932 1228 836 1324Q829 1331 822 1338Q893 1258 893 1149Q893 1029 809 945Q765 901 765 893Q765 892 768 892L770 892L809 831M562 1261L562 1038L606 1038Q652 1038 685 1070.50Q718 1103 718 1149Q718 1196 685 1228.50Q652 1261 606 1261L562 1261M562 765Q583 763 605 763Q634 763 645 762L581 861L562 861L562 765M387 1338Q379 1331 372 1324Q276 1228 276 1091Q276 956 372 859Q379 852 387 845L387 1338M605 587Q395 587 247.50 735Q100 883 100 1091Q100 1300 247.50 1448Q395 1596 605 1596Q812 1596 960 1448Q1108 1300 1108 1091Q1108 883 960 735Q908 683 816 635Q724 587 605 587Z"  horiz-adv-x="1208" vert-adv-y="2048"  />

      
      <glyph glyph-name="uniaf" unicode="&#xaf;" d="M328 1437L895 1437L859 1230L292 1230L328 1437Z"  horiz-adv-x="717" vert-adv-y="2048"  />

      
      <glyph glyph-name="unib0" unicode="&#xb0;" d="M425 1596Q539 1596 619 1515.50Q699 1435 699 1321Q699 1207 619 1127Q539 1047 425 1047Q311 1047 230.50 1127Q150 1207 150 1321Q150 1435 230.50 1515.50Q311 1596 425 1596M425 1407Q389 1407 364 1382Q339 1357 339 1321Q339 1286 364 1261Q389 1236 425 1236Q460 1236 485 1261Q510 1286 510 1321Q510 1357 485 1382Q460 1407 425 1407Z"  horiz-adv-x="849" vert-adv-y="2048"  />

      
      <glyph glyph-name="unib1" unicode="&#xb1;" d="M488 207L541 503L214 503L250 710L577 710L635 1037L841 1037L783 710L1110 710L1074 503L747 503L694 207L1021 207L985 0L125 0L161 207L488 207Z"  horiz-adv-x="1110" vert-adv-y="2048"  />

      
      <glyph glyph-name="unib2" unicode="&#xb2;" d="M227 578Q266 800 419.50 907Q573 1014 655 1065Q737 1116 799 1169Q861 1222 871 1281Q881 1339 844 1380Q807 1421 744 1421Q681 1421 628 1380Q584 1345 544 1207L351 1276Q407 1439 505 1517Q628 1616 778 1616Q928 1616 1016.50 1518Q1105 1420 1081 1281Q1057 1144 936 1043Q865 982 693 908Q521 834 506 771L991 771L957 578L227 578Z"  horiz-adv-x="979" vert-adv-y="2048"  />

      
      <glyph glyph-name="unib3" unicode="&#xb3;" d="M650 1122L537 1124L553 1214L671 1215Q716 1230 745.50 1254.50Q775 1279 788 1357Q793 1385 776 1403.50Q759 1422 729 1422Q650 1422 614 1310L436 1380Q497 1499 552 1541Q648 1616 763 1616Q881 1616 949.50 1539.50Q1018 1463 999 1357Q975 1221 834 1191Q927 1170 982 1104Q1037 1038 1013 901Q989 763 865.50 664.50Q742 566 592 566Q443 566 353 665Q283 743 285 907L503 976Q495 837 526 802Q564 761 626 761Q690 761 741.50 802Q793 843 803 901Q813 961 780 1032.50Q747 1104 650 1122Z"  horiz-adv-x="979" vert-adv-y="2048"  />

      
      <glyph glyph-name="unib4" unicode="&#xb4;" d="M565 1407L817 1407L496 1128L299 1128L565 1407Z"  horiz-adv-x="669" vert-adv-y="2048"  />

      
      <glyph glyph-name="unib5" unicode="&#xb5;" d="M770 81Q664-6 546-6Q374-6 368 61L297-343L90-343L332 1029L539 1029L412 309Q417 291 440 263Q494 201 583 201Q672 201 748 265Q797 306 817 349L937 1029L1142 1029L961 2L756 2L770 81Z"  horiz-adv-x="1110" vert-adv-y="2048"  />

      
      <glyph glyph-name="unib6" unicode="&#xb6;" d="M1138 1474L821-325L614-325L776 594L698 594Q474 594 343 753Q212 912 252 1137Q291 1362 478 1521Q634 1653 832 1680L847 1680L848 1681L1494 1681L1457 1474L1416 1474L1099-325L892-325L1209 1474L1138 1474Z"  horiz-adv-x="1222" vert-adv-y="2048"  />

      
      <glyph glyph-name="unib7" unicode="&#xb7;" d="M386 923Q437 923 467 887.50Q497 852 488 801Q479 748 436.50 712.50Q394 677 343 677Q293 677 262.50 712.50Q232 748 241 801Q250 852 293 887.50Q336 923 386 923Z"  horiz-adv-x="708" vert-adv-y="2048"  />

      
      <glyph glyph-name="uni2219" unicode="&#x2219;" d="M386 923Q437 923 467 887.50Q497 852 488 801Q479 748 436.50 712.50Q394 677 343 677Q293 677 262.50 712.50Q232 748 241 801Q250 852 293 887.50Q336 923 386 923Z"  horiz-adv-x="708" vert-adv-y="2048"  />

      
      <glyph glyph-name="unib8" unicode="&#xb8;" d="M314 17L280-44Q347-82 359-133Q361-147 362-160Q362-173 360-186Q352-229 315-267Q255-326 158-340Q138-343 113-343Q55-343-33-328L24-202Q77-228 113-228Q119-228 124-227Q156-223 170-192Q174-185 176-177Q176-173 176-169Q175-141 94-113L165 17L314 17Z"  horiz-adv-x="418" vert-adv-y="2048"  />

      
      <glyph glyph-name="unib9" unicode="&#xb9;" d="M995 1596L814 570L606 570L746 1366L609 1366L844 1596L995 1596Z"  horiz-adv-x="1081" vert-adv-y="2048"  />

      
      <glyph glyph-name="uniba" unicode="&#xba;" d="M748 1600Q904 1600 996 1500Q1088 1400 1063 1258Q1038 1116 910.50 1016Q783 916 627 916Q472 916 379.50 1016Q287 1116 312 1258Q337 1400 465 1500Q593 1600 748 1600M725 1472Q628 1472 547.50 1409Q467 1346 452 1258Q436 1169 494 1106.50Q552 1044 650 1044Q748 1044 827.50 1106.50Q907 1169 923 1258Q939 1346 881 1409Q823 1472 725 1472M1194 1347L1351 1347L1226 640L447 640L475 797L1097 797L1194 1347Z"  horiz-adv-x="931" vert-adv-y="2048"  />

      
      <glyph glyph-name="unibb" unicode="&#xbb;" d="M83-95L132 185L469 489L239 792L288 1070L729 489L83-95M561-95L610 185L947 489L717 792L766 1070L1207 489L561-95Z"  horiz-adv-x="1222" vert-adv-y="2048"  />

      
      <glyph glyph-name="unibf" unicode="&#xbf;" d="M846-170Q833-244 784-316Q692-456 537-507Q469-529 407-529Q325-529 253-491Q124-424 99-279Q89-216 100-154Q115-71 166 8Q252 138 413 247Q524 332 592 437Q633 499 645 560L851 560Q831 452 761 348Q652 181 473 62Q384-13 338-82Q314-119 308-155Q303-182 307-210Q319-276 376-306Q409-323 445-323Q472-323 503-313Q573-290 614-228Q626-209 637-171L858-103L846-170M641 883Q652 945 702.50 987Q753 1029 812 1029Q872 1029 907 987Q942 945 931 883Q920 823 870 781Q820 739 760 739Q701 739 665.50 781Q630 823 641 883Z"  horiz-adv-x="1028" vert-adv-y="2048"  />

      
      <glyph glyph-name="unic0" unicode="&#xc0;" d="M961 773L890 1148L688 773L961 773M1026 1600L1326 0L1106 0L1000 566L576 566L271 0L50 0L914 1600L1026 1600M1144 1699L947 1699L724 1978L976 1978L1144 1699Z"  horiz-adv-x="1376" vert-adv-y="2048"  />

      
      <glyph glyph-name="unic1" unicode="&#xc1;" d="M961 773L890 1148L688 773L961 773M1026 1600L1326 0L1106 0L1000 566L576 566L271 0L50 0L914 1600L1026 1600M1097 1978L1349 1978L1028 1699L831 1699L1097 1978Z"  horiz-adv-x="1376" vert-adv-y="2048"  />

      
      <glyph glyph-name="unic2" unicode="&#xc2;" d="M961 773L890 1148L688 773L961 773M1026 1600L1326 0L1106 0L1000 566L576 566L271 0L50 0L914 1600L1026 1600M1086 1749L1008 1831L905 1749L686 1749L961 1987L1108 1987L1307 1749L1086 1749Z"  horiz-adv-x="1376" vert-adv-y="2048"  />

      
      <glyph glyph-name="unic3" unicode="&#xc3;" d="M961 773L890 1148L688 773L961 773M1026 1600L1326 0L1106 0L1000 566L576 566L271 0L50 0L914 1600L1026 1600M1055.50 1946Q1055.50 1946 1081.25 1917Q1107 1888 1133 1888L1133 1887Q1163 1887 1170 1926Q1175 1952 1169 1995L1355 1995Q1278 1775 1164 1743Q1134 1735 1106 1735Q1032 1735 983 1792Q934 1849 906 1849L902 1849Q871 1847 865 1810Q860 1785 867 1744L680 1744Q758 1964 873 1996Q903 2004 931 2004Q1004 2004 1055.50 1946Z"  horiz-adv-x="1376" vert-adv-y="2048"  />

      
      <glyph glyph-name="unic4" unicode="&#xc4;" d="M961 773L890 1148L688 773L961 773M1026 1600L1326 0L1106 0L1000 566L576 566L271 0L50 0L914 1600L1026 1600M854 2009Q913 2009 948.50 1967Q984 1925 974 1865Q963 1804 912.50 1762Q862 1720 803 1720Q743 1720 708 1762Q673 1804 684 1865Q694 1925 744 1967Q794 2009 854 2009M1230 2009Q1289 2009 1324.50 1967Q1360 1925 1350 1865Q1339 1804 1288.50 1762Q1238 1720 1179 1720Q1119 1720 1084 1762Q1049 1804 1060 1865Q1070 1925 1120 1967Q1170 2009 1230 2009Z"  horiz-adv-x="1376" vert-adv-y="2048"  />

      
      <glyph glyph-name="unic5" unicode="&#xc5;" d="M961 773L890 1148L688 773L961 773M997 1738Q1019 1738 1038 1753.50Q1057 1769 1061 1792Q1066 1820 1052.50 1835.50Q1039 1851 1017 1851Q989 1851 971 1835.50Q953 1820 948 1792Q944 1769 956.50 1753.50Q969 1738 997 1738M1028 1592L1326 0L1106 0L1000 566L576 566L271 0L50 0L910 1592Q862 1606 830 1646Q779 1708 794 1794Q810 1881 882.50 1943Q955 2005 1043 2005Q1130 2005 1180.50 1943Q1231 1881 1215 1794Q1200 1708 1128 1646Q1081 1606 1028 1592Z"  horiz-adv-x="1376" vert-adv-y="2048"  />

      
      <glyph glyph-name="unic6" unicode="&#xc6;" d="M1873 1600L1837 1393L1182 1393L1095 904L1750 904L1714 697L1059 697L973 208L1628 208L1591 0L729 0L829 566L635 566L293 0L40 0L1002 1548L1011 1600L1873 1600M910 1028L755 773L865 773L910 1028Z"  horiz-adv-x="1715" vert-adv-y="2048"  />

      
      <glyph glyph-name="unic7" unicode="&#xc7;" d="M779-2Q551 42 403 222Q206 461 266 800Q325 1138 606.50 1378Q888 1618 1227 1618Q1544 1618 1782 1359L1602 1218Q1422 1408 1190 1408Q939 1408 729 1230Q519 1052 475 800Q430 547 577 369Q724 191 975 191Q1207 191 1455 381L1585 242Q1256-17 939-17L920-17L905-44Q972-82 984-133Q986-147 987-160Q987-173 985-186Q977-229 940-267Q880-326 783-340Q763-343 738-343Q680-343 592-328L649-202Q702-228 738-228Q744-228 749-227Q780-223 795-192Q799-185 801-177Q801-173 801-169Q800-141 719-113L779-2Z"  horiz-adv-x="1642" vert-adv-y="2048"  />

      
      <glyph glyph-name="unic8" unicode="&#xc8;" d="M1294 1600L1258 1393L603 1393L516 904L1171 904L1135 697L480 697L394 208L1049 208L1012 0L150 0L432 1600L1294 1600M1037 1699L840 1699L617 1978L869 1978L1037 1699Z"  horiz-adv-x="1137" vert-adv-y="2048"  />

      
      <glyph glyph-name="unic9" unicode="&#xc9;" d="M1294 1600L1258 1393L603 1393L516 904L1171 904L1135 697L480 697L394 208L1049 208L1012 0L150 0L432 1600L1294 1600M990 1978L1242 1978L921 1699L724 1699L990 1978Z"  horiz-adv-x="1137" vert-adv-y="2048"  />

      
      <glyph glyph-name="unica" unicode="&#xca;" d="M1294 1600L1258 1393L603 1393L516 904L1171 904L1135 697L480 697L394 208L1049 208L1012 0L150 0L432 1600L1294 1600M979 1749L901 1831L798 1749L579 1749L854 1987L1001 1987L1200 1749L979 1749Z"  horiz-adv-x="1137" vert-adv-y="2048"  />

      
      <glyph glyph-name="unicb" unicode="&#xcb;" d="M1294 1600L1258 1393L603 1393L516 904L1171 904L1135 697L480 697L394 208L1049 208L1012 0L150 0L432 1600L1294 1600M747 2009Q806 2009 841.50 1967Q877 1925 867 1865Q856 1804 805.50 1762Q755 1720 696 1720Q636 1720 601 1762Q566 1804 577 1865Q587 1925 637 1967Q687 2009 747 2009M1123 2009Q1182 2009 1217.50 1967Q1253 1925 1243 1865Q1232 1804 1181.50 1762Q1131 1720 1072 1720Q1012 1720 977 1762Q942 1804 953 1865Q963 1925 1013 1967Q1063 2009 1123 2009Z"  horiz-adv-x="1137" vert-adv-y="2048"  />

      
      <glyph glyph-name="unicc" unicode="&#xcc;" d="M659 1600L377 0L170 0L452 1600L659 1600M729 1699L532 1699L310 1978L562 1978L729 1699Z"  horiz-adv-x="548" vert-adv-y="2048"  />

      
      <glyph glyph-name="unicd" unicode="&#xcd;" d="M659 1600L377 0L170 0L452 1600L659 1600M683 1978L935 1978L614 1699L417 1699L683 1978Z"  horiz-adv-x="548" vert-adv-y="2048"  />

      
      <glyph glyph-name="unice" unicode="&#xce;" d="M659 1600L377 0L170 0L452 1600L659 1600M671 1749L594 1831L490 1749L271 1749L546 1987L693 1987L892 1749L671 1749Z"  horiz-adv-x="548" vert-adv-y="2048"  />

      
      <glyph glyph-name="unicf" unicode="&#xcf;" d="M660 1600L378 0L171 0L453 1600L660 1600M441 2009Q500 2009 535.50 1967Q571 1925 560 1865Q550 1804 499.50 1762Q449 1720 390 1720Q330 1720 295 1762Q260 1804 270 1865Q281 1925 331 1967Q381 2009 441 2009M817 2009Q876 2009 911.50 1967Q947 1925 936 1865Q926 1804 875.50 1762Q825 1720 766 1720Q706 1720 671 1762Q636 1804 646 1865Q657 1925 707 1967Q757 2009 817 2009Z"  horiz-adv-x="548" vert-adv-y="2048"  />

      
      <glyph glyph-name="unid0" unicode="&#xd0;" d="M309 903L432 1600L584 1600Q974 1598 1153 1379Q1350 1138 1290 800Q1230 461 949 221Q692 2 302 0L150 0L273 697L83 697L119 903L309 903M516 903L863 903L827 697L480 697L394 210Q641 210 827 369Q1037 547 1081 800Q1126 1052 979 1231Q849 1389 602 1389L516 903Z"  horiz-adv-x="1250" vert-adv-y="2048"  />

      
      <glyph glyph-name="unid1" unicode="&#xd1;" d="M432 1600L621 1600L1080 458L1281 1600L1489 1600L1207 0L1026 0L561 1156L357 0L150 0L432 1600M1046 1946Q1046 1946 1072 1917Q1098 1888 1124 1888L1124 1887Q1154 1887 1161 1926Q1165 1952 1160 1995L1346 1995Q1269 1775 1154 1743Q1125 1735 1097 1735Q1023 1735 973.50 1792Q924 1849 896 1849L892 1849Q862 1847 855 1810Q851 1785 858 1744L671 1744Q748 1964 864 1996Q893 2004 921 2004Q994 2004 1046 1946Z"  horiz-adv-x="1357" vert-adv-y="2048"  />

      
      <glyph glyph-name="unid2" unicode="&#xd2;" d="M1230 1621Q1569 1621 1767 1381Q1965 1141 1905 802Q1845 463 1562.50 223Q1280-17 941-17Q602-17 404.50 223Q207 463 267 802Q327 1141 609 1381Q891 1621 1230 1621M1193 1412Q940 1412 730 1233.50Q520 1055 476 802Q431 549 578.50 370Q726 191 978 191Q1231 191 1441 370Q1651 549 1696 802Q1740 1055 1593 1233.50Q1446 1412 1193 1412M1400 1699L1203 1699L980 1978L1232 1978L1400 1699Z"  horiz-adv-x="1889" vert-adv-y="2048"  />

      
      <glyph glyph-name="unid3" unicode="&#xd3;" d="M1230 1621Q1569 1621 1767 1381Q1965 1141 1905 802Q1845 463 1562.50 223Q1280-17 941-17Q602-17 404.50 223Q207 463 267 802Q327 1141 609 1381Q891 1621 1230 1621M1193 1412Q940 1412 730 1233.50Q520 1055 476 802Q431 549 578.50 370Q726 191 978 191Q1231 191 1441 370Q1651 549 1696 802Q1740 1055 1593 1233.50Q1446 1412 1193 1412M1354 1978L1606 1978L1285 1699L1088 1699L1354 1978Z"  horiz-adv-x="1889" vert-adv-y="2048"  />

      
      <glyph glyph-name="unid4" unicode="&#xd4;" d="M1230 1621Q1569 1621 1767 1381Q1965 1141 1905 802Q1845 463 1562.50 223Q1280-17 941-17Q602-17 404.50 223Q207 463 267 802Q327 1141 609 1381Q891 1621 1230 1621M1193 1412Q940 1412 730 1233.50Q520 1055 476 802Q431 549 578.50 370Q726 191 978 191Q1231 191 1441 370Q1651 549 1696 802Q1740 1055 1593 1233.50Q1446 1412 1193 1412M1342 1749L1265 1831L1161 1749L942 1749L1217 1987L1364 1987L1563 1749L1342 1749Z"  horiz-adv-x="1889" vert-adv-y="2048"  />

      
      <glyph glyph-name="unid5" unicode="&#xd5;" d="M1230 1621Q1569 1621 1767 1381Q1965 1141 1905 802Q1845 463 1562.50 223Q1280-17 941-17Q602-17 404.50 223Q207 463 267 802Q327 1141 609 1381Q891 1621 1230 1621M1193 1412Q940 1412 730 1233.50Q520 1055 476 802Q431 549 578.50 370Q726 191 978 191Q1231 191 1441 370Q1651 549 1696 802Q1740 1055 1593 1233.50Q1446 1412 1193 1412M1312 1946Q1312 1946 1338 1917Q1364 1888 1390 1888L1390 1887Q1420 1887 1426 1926Q1431 1952 1426 1995L1612 1995Q1535 1775 1420 1743Q1391 1735 1363 1735Q1289 1735 1239.50 1792Q1190 1849 1162 1849L1158 1849Q1128 1847 1121 1810Q1117 1785 1123 1744L936 1744Q1014 1964 1130 1996Q1159 2004 1187 2004Q1260 2004 1312 1946Z"  horiz-adv-x="1889" vert-adv-y="2048"  />

      
      <glyph glyph-name="unid6" unicode="&#xd6;" d="M1230 1621Q1569 1621 1767 1381Q1965 1141 1905 802Q1845 463 1562.50 223Q1280-17 941-17Q602-17 404.50 223Q207 463 267 802Q327 1141 609 1381Q891 1621 1230 1621M1193 1412Q940 1412 730 1233.50Q520 1055 476 802Q431 549 578.50 370Q726 191 978 191Q1231 191 1441 370Q1651 549 1696 802Q1740 1055 1593 1233.50Q1446 1412 1193 1412M1111 2009Q1170 2009 1205.50 1967Q1241 1925 1230 1865Q1219 1804 1169 1762Q1119 1720 1060 1720Q1000 1720 964.50 1762Q929 1804 940 1865Q951 1925 1001 1967Q1051 2009 1111 2009M1487 2009Q1546 2009 1581.50 1967Q1617 1925 1606 1865Q1595 1804 1545 1762Q1495 1720 1436 1720Q1376 1720 1340.50 1762Q1305 1804 1316 1865Q1327 1925 1377 1967Q1427 2009 1487 2009Z"  horiz-adv-x="1889" vert-adv-y="2048"  />

      
      <glyph glyph-name="unid7" unicode="&#xd7;" d="M588 461L357 230L210 377L441 608L210 840L357 987L588 755L820 987L965 839L734 608L965 377L820 230L588 461Z"  horiz-adv-x="1177" vert-adv-y="2048"  />

      
      <glyph glyph-name="unid8" unicode="&#xd8;" d="M1106 1396Q1065 1412 944 1412Q691 1412 512.50 1233.50Q334 1055 334 802Q334 549 513 370Q578 305 594 296L1106 1396M781 208Q823 191 944 191Q1197 191 1375.50 370Q1554 549 1554 802Q1554 1055 1376 1234Q1311 1299 1294 1308L781 208M1383 1498Q1434 1470 1524 1382Q1763 1141 1763 802Q1763 463 1523 223Q1283-17 944-17Q780-17 693 18L613-155L424-67L505 106Q454 134 365 223Q125 463 125 802Q125 1141 365 1381Q605 1621 944 1621Q1108 1621 1195 1586L1276 1759L1464 1671L1383 1498Z"  horiz-adv-x="1889" vert-adv-y="2048"  />

      
      <glyph glyph-name="unid9" unicode="&#xd9;" d="M1312 1600L1520 1600L1321 473Q1260 280 1105 147Q917-13 692-13Q467-13 335.50 146.50Q204 306 244 531L432 1600L640 1600L452 531Q427 393 508.50 294.50Q590 196 729 196Q869 196 984 294Q1099 392 1124 531L1312 1600M1150 1699L953 1699L730 1978L982 1978L1150 1699Z"  horiz-adv-x="1388" vert-adv-y="2048"  />

      
      <glyph glyph-name="unida" unicode="&#xda;" d="M1312 1600L1520 1600L1321 473Q1260 280 1105 147Q917-13 692-13Q467-13 335.50 146.50Q204 306 244 531L432 1600L640 1600L452 531Q427 393 508.50 294.50Q590 196 729 196Q869 196 984 294Q1099 392 1124 531L1312 1600M1103 1978L1355 1978L1034 1699L837 1699L1103 1978Z"  horiz-adv-x="1388" vert-adv-y="2048"  />

      
      <glyph glyph-name="unidb" unicode="&#xdb;" d="M1312 1600L1520 1600L1321 473Q1260 280 1105 147Q917-13 692-13Q467-13 335.50 146.50Q204 306 244 531L432 1600L640 1600L452 531Q427 393 508.50 294.50Q590 196 729 196Q869 196 984 294Q1099 392 1124 531L1312 1600M1092 1749L1014 1831L911 1749L692 1749L967 1987L1114 1987L1313 1749L1092 1749Z"  horiz-adv-x="1388" vert-adv-y="2048"  />

      
      <glyph glyph-name="unidc" unicode="&#xdc;" d="M1312 1600L1520 1600L1321 473Q1260 280 1105 147Q917-13 692-13Q467-13 335.50 146.50Q204 306 244 531L432 1600L640 1600L452 531Q427 393 508.50 294.50Q590 196 729 196Q869 196 984 294Q1099 392 1124 531L1312 1600M860 2009Q919 2009 954.50 1967Q990 1925 980 1865Q969 1804 918.50 1762Q868 1720 809 1720Q749 1720 714 1762Q679 1804 690 1865Q700 1925 750 1967Q800 2009 860 2009M1236 2009Q1295 2009 1330.50 1967Q1366 1925 1356 1865Q1345 1804 1294.50 1762Q1244 1720 1185 1720Q1125 1720 1090 1762Q1055 1804 1066 1865Q1076 1925 1126 1967Q1176 2009 1236 2009Z"  horiz-adv-x="1388" vert-adv-y="2048"  />

      
      <glyph glyph-name="unidd" unicode="&#xdd;" d="M716 642L332 1600L570 1600L860 876L1407 1600L1646 1600L923 642L810 0L603 0L716 642M1116 1978L1368 1978L1047 1699L850 1699L1116 1978Z"  horiz-adv-x="1414" vert-adv-y="2048"  />

      
      <glyph glyph-name="unide" unicode="&#xde;" d="M594 1345L841 1345Q1029 1318 1139 1185Q1270 1026 1230 801Q1190 575 1003 416Q816 257 591 257L402 257L357 0L150 0L432 1600L639 1600L594 1345M439 465L628 465Q766 465 882 563.50Q998 662 1022 801Q1047 940 965.50 1038Q884 1136 746 1136L557 1136L439 465Z"  horiz-adv-x="1180" vert-adv-y="2048"  />

      
      <glyph glyph-name="unidf" unicode="&#xdf;" d="M752 1607L768 1607Q902 1607 985 1529Q1074 1442 1053 1273L1050 1256Q1022 1092 971 1064Q1208 962 1153 572Q1111 336 916 165Q732 4 576 2L576 0L498 0L535 208L613 208L613 211Q678 215 790 314Q914 422 941 571Q967 718 880.50 822.50Q794 927 653 927L690 1137Q757 1145 796.50 1176.50Q836 1208 846 1263Q856 1321 827 1362Q803 1396 740 1396L731 1396Q662 1394 623 1355.50Q584 1317 564 1228L347 0L140 0L360 1246Q401 1419 502.50 1510.50Q604 1602 752 1607Z"  horiz-adv-x="1142" vert-adv-y="2048"  />

      
      <glyph glyph-name="unie0" unicode="&#xe0;" d="M1124 466L1151 618Q1150 715 1086 794Q999 898 852 898Q704 898 581.50 794Q459 690 433 542Q407 395 493 290.50Q579 186 727 186Q874 186 997 290Q1089 369 1124 466M1211 957L1223 1029L1431 1029L1250-1L1042-1L1065 128Q887-27 689-27Q453-27 316 139.50Q179 306 221 542Q262 778 458 944.50Q654 1111 890 1111Q1088 1111 1211 957M1043 1128L846 1128L623 1407L875 1407L1043 1128Z"  horiz-adv-x="1401" vert-adv-y="2048"  />

      
      <glyph glyph-name="unie1" unicode="&#xe1;" d="M1124 466L1151 618Q1150 715 1086 794Q999 898 852 898Q704 898 581.50 794Q459 690 433 542Q407 395 493 290.50Q579 186 727 186Q874 186 997 290Q1089 369 1124 466M1211 957L1223 1029L1431 1029L1250-1L1042-1L1065 128Q887-27 689-27Q453-27 316 139.50Q179 306 221 542Q262 778 458 944.50Q654 1111 890 1111Q1088 1111 1211 957M996 1407L1248 1407L927 1128L730 1128L996 1407Z"  horiz-adv-x="1401" vert-adv-y="2048"  />

      
      <glyph glyph-name="unie2" unicode="&#xe2;" d="M1124 466L1151 618Q1150 715 1086 794Q999 898 852 898Q704 898 581.50 794Q459 690 433 542Q407 395 493 290.50Q579 186 727 186Q874 186 997 290Q1089 369 1124 466M1211 957L1223 1029L1431 1029L1250-1L1042-1L1065 128Q887-27 689-27Q453-27 316 139.50Q179 306 221 542Q262 778 458 944.50Q654 1111 890 1111Q1088 1111 1211 957M985 1178L907 1260L804 1178L585 1178L860 1416L1007 1416L1206 1178L985 1178Z"  horiz-adv-x="1401" vert-adv-y="2048"  />

      
      <glyph glyph-name="unie3" unicode="&#xe3;" d="M1124 466L1151 618Q1150 715 1086 794Q999 898 852 898Q704 898 581.50 794Q459 690 433 542Q407 395 493 290.50Q579 186 727 186Q874 186 997 290Q1089 369 1124 466M1211 957L1223 1029L1431 1029L1250-1L1042-1L1065 128Q887-27 689-27Q453-27 316 139.50Q179 306 221 542Q262 778 458 944.50Q654 1111 890 1111Q1088 1111 1211 957M954.50 1375Q954.50 1375 980.25 1346Q1006 1317 1032 1317L1032 1316Q1062 1316 1069 1355Q1074 1381 1068 1424L1254 1424Q1177 1204 1063 1172Q1033 1164 1005 1164Q931 1164 881.50 1221Q832 1278 804 1278L800 1278Q770 1276 764 1239Q759 1214 766 1173L579 1173Q657 1393 772 1425Q802 1433 830 1433Q903 1433 954.50 1375Z"  horiz-adv-x="1401" vert-adv-y="2048"  />

      
      <glyph glyph-name="unie4" unicode="&#xe4;" d="M1124 466L1151 618Q1150 715 1086 794Q999 898 852 898Q704 898 581.50 794Q459 690 433 542Q407 395 493 290.50Q579 186 727 186Q874 186 997 290Q1089 369 1124 466M1211 957L1223 1029L1431 1029L1250-1L1042-1L1065 128Q887-27 689-27Q453-27 316 139.50Q179 306 221 542Q262 778 458 944.50Q654 1111 890 1111Q1088 1111 1211 957M753 1438Q812 1438 847.50 1396Q883 1354 873 1294Q862 1233 811.50 1191Q761 1149 702 1149Q642 1149 607 1191Q572 1233 583 1294Q593 1354 643 1396Q693 1438 753 1438M1129 1438Q1188 1438 1223.50 1396Q1259 1354 1249 1294Q1238 1233 1187.50 1191Q1137 1149 1078 1149Q1018 1149 983 1191Q948 1233 959 1294Q969 1354 1019 1396Q1069 1438 1129 1438Z"  horiz-adv-x="1401" vert-adv-y="2048"  />

      
      <glyph glyph-name="unie5" unicode="&#xe5;" d="M1124 466L1151 618Q1150 715 1086 794Q999 898 852 898Q704 898 581.50 794Q459 690 433 542Q407 395 493 290.50Q579 186 727 186Q874 186 997 290Q1089 369 1124 466M901 1199Q923 1199 942 1214.50Q961 1230 965 1253Q970 1281 956.50 1296.50Q943 1312 921 1312Q893 1312 875 1296.50Q857 1281 852 1253Q848 1230 860.50 1214.50Q873 1199 901 1199M1015 1094Q1129 1059 1211 957L1223 1029L1431 1029L1250-1L1042-1L1065 128Q887-27 689-27Q453-27 316 139.50Q179 306 221 542Q262 778 458 945Q592 1058 745 1094Q739 1100 734 1107Q683 1169 698 1255Q714 1342 786.50 1404Q859 1466 947 1466Q1034 1466 1084.50 1404Q1135 1342 1119 1255Q1104 1169 1032 1107Q1023 1100 1015 1094Z"  horiz-adv-x="1401" vert-adv-y="2048"  />

      
      <glyph glyph-name="unie6" unicode="&#xe6;" d="M1098 714Q1081 757 1050 795Q964 899 816 899Q669 899 546.50 795Q424 691 397 543Q371 395 457.50 291Q544 187 691 187Q839 187 961 292Q1007 330 1037 372Q1073 419 1090 467L1117 619Q1116 667 1098 714M1933 736L1885 795Q1799 899 1651 899Q1503 899 1381 795Q1355 773 1350 767L1344 736L1933 736M1183 992L1189 1030L1396 1030Q1467 1112 1689 1112Q1925 1112 2062 945Q2184 796 2145 528L1308 529L1271 319Q1274 313 1291 292Q1378 187 1526 187Q1674 187 1796 292Q1819 311 1872 365L2062 294Q1985 196 1921 141Q1724-25 1488-25Q1266-25 1219 27L1215 0L1008 0L1024 95Q853-25 653-25Q418-25 281 141.50Q144 308 185 543Q227 779 423 945.50Q619 1112 854 1112Q1053 1112 1183 992Z"  horiz-adv-x="2142" vert-adv-y="2048"  />

      
      <glyph glyph-name="unie7" unicode="&#xe7;" d="M566-21Q392 6 282 140Q144 307 186 543Q227 779 423.50 946Q620 1113 855 1113Q1091 1113 1229 946Q1257 912 1315 809L1094 733Q1063 782 1051 796Q966 900 818 900Q671 900 548 795.50Q425 691 399 543Q373 396 459 291.50Q545 187 692 187Q840 187 963 291Q979 305 1027 353L1221 279Q1127 174 1087 140Q915-6 713-24L702-44Q769-82 781-133Q783-147 784-160Q784-173 782-186Q774-229 737-267Q677-326 580-340Q560-343 535-343Q477-343 389-328L446-202Q499-228 535-228Q541-228 546-227Q578-223 592-192Q596-185 598-177Q598-173 598-169Q597-141 516-113L566-21Z"  horiz-adv-x="1262" vert-adv-y="2048"  />

      
      <glyph glyph-name="unie8" unicode="&#xe8;" d="M511 233Q555 187 692 187Q840 187 963 291Q979 305 1027 353L1221 279Q1127 174 1087 140Q890-27 654-27Q419-27 281.50 140Q144 307 186 543Q227 779 423.50 946Q620 1113 855 1113Q1057 1113 1188 991Q1209 970 1229 946Q1237 936 1275 883L1152 778L511 233M970 873Q940 900 818 900Q671 900 548 795.50Q425 691 399 543Q377 422 398 386L970 873M986 1128L789 1128L566 1407L818 1407L986 1128Z"  horiz-adv-x="1262" vert-adv-y="2048"  />

      
      <glyph glyph-name="unie9" unicode="&#xe9;" d="M511 233Q555 187 692 187Q840 187 963 291Q979 305 1027 353L1221 279Q1127 174 1087 140Q890-27 654-27Q419-27 281.50 140Q144 307 186 543Q227 779 423.50 946Q620 1113 855 1113Q1057 1113 1188 991Q1209 970 1229 946Q1237 936 1275 883L1152 778L511 233M970 873Q940 900 818 900Q671 900 548 795.50Q425 691 399 543Q377 422 398 386L970 873M940 1407L1192 1407L870 1128L673 1128L940 1407Z"  horiz-adv-x="1262" vert-adv-y="2048"  />

      
      <glyph glyph-name="uniea" unicode="&#xea;" d="M511 233Q555 187 692 187Q840 187 963 291Q979 305 1027 353L1221 279Q1127 174 1087 140Q890-27 654-27Q419-27 281.50 140Q144 307 186 543Q227 779 423.50 946Q620 1113 855 1113Q1057 1113 1188 991Q1209 970 1229 946Q1237 936 1275 883L1152 778L511 233M970 873Q940 900 818 900Q671 900 548 795.50Q425 691 399 543Q377 422 398 386L970 873M928 1178L851 1260L747 1178L528 1178L803 1416L950 1416L1149 1178L928 1178Z"  horiz-adv-x="1262" vert-adv-y="2048"  />

      
      <glyph glyph-name="unieb" unicode="&#xeb;" d="M511 233Q555 187 692 187Q840 187 963 291Q979 305 1027 353L1221 279Q1127 174 1087 140Q890-27 654-27Q419-27 281.50 140Q144 307 186 543Q227 779 423.50 946Q620 1113 855 1113Q1057 1113 1188 991Q1209 970 1229 946Q1237 936 1275 883L1152 778L511 233M970 873Q940 900 818 900Q671 900 548 795.50Q425 691 399 543Q377 422 398 386L970 873M696 1438Q755 1438 791 1396Q827 1354 816 1294Q805 1233 754.50 1191Q704 1149 645 1149Q585 1149 550 1191Q515 1233 526 1294Q537 1354 586.50 1396Q636 1438 696 1438M1072 1438Q1131 1438 1167 1396Q1203 1354 1192 1294Q1181 1233 1130.50 1191Q1080 1149 1021 1149Q961 1149 926 1191Q891 1233 902 1294Q913 1354 962.50 1396Q1012 1438 1072 1438Z"  horiz-adv-x="1262" vert-adv-y="2048"  />

      
      <glyph glyph-name="uniec" unicode="&#xec;" d="M559 1030L377 0L170 0L352 1030L559 1030M629 1128L432 1128L209 1407L461 1407L629 1128Z"  horiz-adv-x="548" vert-adv-y="2048"  />

      
      <glyph glyph-name="unied" unicode="&#xed;" d="M559 1030L377 0L170 0L352 1030L559 1030M582 1407L834 1407L513 1128L316 1128L582 1407Z"  horiz-adv-x="548" vert-adv-y="2048"  />

      
      <glyph glyph-name="uniee" unicode="&#xee;" d="M559 1030L377 0L170 0L352 1030L559 1030M571 1178L493 1260L390 1178L171 1178L446 1416L593 1416L792 1178L571 1178Z"  horiz-adv-x="548" vert-adv-y="2048"  />

      
      <glyph glyph-name="unief" unicode="&#xef;" d="M559 1030L377 0L170 0L352 1030L559 1030M339 1438Q398 1438 433.50 1396Q469 1354 459 1294Q448 1233 397.50 1191Q347 1149 288 1149Q228 1149 193 1191Q158 1233 169 1294Q179 1354 229 1396Q279 1438 339 1438M715 1438Q774 1438 809.50 1396Q845 1354 835 1294Q824 1233 773.50 1191Q723 1149 664 1149Q604 1149 569 1191Q534 1233 545 1294Q555 1354 605 1396Q655 1438 715 1438Z"  horiz-adv-x="548" vert-adv-y="2048"  />

      
      <glyph glyph-name="unif0" unicode="&#xf0;" d="M547 795Q547 795 485.50 742.50Q424 690 398 543Q372 395 458 291Q544 187 692 187Q840 187 963 291Q1086 395 1112 543Q1138 690 1052 795Q966 900 818 900Q670 900 547 795M1307 808Q1349 689 1324 543Q1282 307 1086 140Q890-27 654-27Q419-27 281.50 140Q144 307 186 543Q227 779 423.50 946Q620 1113 855 1113Q872 1113 889 1112L755 1296L616 1208L359 1208L675 1406L528 1600L780 1600L844 1512L995 1600L1247 1600L918 1399L1188 990Q1209 969 1228 946Q1280 883 1306 809L1307 808Z"  horiz-adv-x="1318" vert-adv-y="2048"  />

      
      <glyph glyph-name="unif1" unicode="&#xf1;" d="M491 753L358 0L150 0L331 1029L539 1029L518 909Q614 1085 810 1085Q977 1085 1055 966.50Q1133 848 1104 669L986 0L779 0L896 661Q911 750 857.50 813.50Q804 877 714 877Q625 877 549 815Q506 778 491 753M835 1375Q835 1375 861 1346Q887 1317 913 1317L913 1316Q943 1316 949 1355Q954 1381 949 1424L1135 1424Q1058 1204 943 1172Q914 1164 886 1164Q812 1164 762.50 1221Q713 1278 685 1278L681 1278Q650 1276 644 1239Q640 1214 646 1173L459 1173Q537 1393 653 1425Q682 1433 710 1433Q783 1433 835 1375Z"  horiz-adv-x="1139" vert-adv-y="2048"  />

      
      <glyph glyph-name="unif2" unicode="&#xf2;" d="M855 1113Q1091 1113 1228 946Q1365 779 1324 543Q1282 307 1086 140Q890-27 654-27Q419-27 281.50 140Q144 307 186 543Q227 779 423.50 946Q620 1113 855 1113M818 900Q670 900 547 795Q424 690 398 543Q372 395 458 291Q544 187 692 187Q840 187 963 291Q1086 395 1112 543Q1138 690 1052 795Q966 900 818 900M1014 1128L817 1128L594 1407L846 1407L1014 1128Z"  horiz-adv-x="1318" vert-adv-y="2048"  />

      
      <glyph glyph-name="unif3" unicode="&#xf3;" d="M855 1113Q1091 1113 1228 946Q1365 779 1324 543Q1282 307 1086 140Q890-27 654-27Q419-27 281.50 140Q144 307 186 543Q227 779 423.50 946Q620 1113 855 1113M818 900Q670 900 547 795Q424 690 398 543Q372 395 458 291Q544 187 692 187Q840 187 963 291Q1086 395 1112 543Q1138 690 1052 795Q966 900 818 900M968 1407L1220 1407L898 1128L701 1128L968 1407Z"  horiz-adv-x="1318" vert-adv-y="2048"  />

      
      <glyph glyph-name="unif4" unicode="&#xf4;" d="M855 1113Q1091 1113 1228 946Q1365 779 1324 543Q1282 307 1086 140Q890-27 654-27Q419-27 281.50 140Q144 307 186 543Q227 779 423.50 946Q620 1113 855 1113M818 900Q670 900 547 795Q424 690 398 543Q372 395 458 291Q544 187 692 187Q840 187 963 291Q1086 395 1112 543Q1138 690 1052 795Q966 900 818 900M956 1178L879 1260L775 1178L556 1178L831 1416L978 1416L1177 1178L956 1178Z"  horiz-adv-x="1318" vert-adv-y="2048"  />

      
      <glyph glyph-name="unif5" unicode="&#xf5;" d="M855 1113Q1091 1113 1228 946Q1365 779 1324 543Q1282 307 1086 140Q890-27 654-27Q419-27 281.50 140Q144 307 186 543Q227 779 423.50 946Q620 1113 855 1113M818 900Q670 900 547 795Q424 690 398 543Q372 395 458 291Q544 187 692 187Q840 187 963 291Q1086 395 1112 543Q1138 690 1052 795Q966 900 818 900M926 1375Q926 1375 952 1346Q978 1317 1004 1317L1003 1316Q1033 1316 1040 1355Q1045 1381 1039 1424L1225 1424Q1149 1204 1034 1172Q1005 1164 977 1164Q903 1164 853.50 1221Q804 1278 776 1278L772 1278Q741 1276 735 1239Q730 1214 737 1173L550 1173Q628 1393 744 1425Q773 1433 801 1433Q874 1433 926 1375Z"  horiz-adv-x="1318" vert-adv-y="2048"  />

      
      <glyph glyph-name="unif6" unicode="&#xf6;" d="M855 1113Q1091 1113 1228 946Q1365 779 1324 543Q1282 307 1086 140Q890-27 654-27Q419-27 281.50 140Q144 307 186 543Q227 779 423.50 946Q620 1113 855 1113M818 900Q670 900 547 795Q424 690 398 543Q372 395 458 291Q544 187 692 187Q840 187 963 291Q1086 395 1112 543Q1138 690 1052 795Q966 900 818 900M724 1438Q783 1438 819 1396Q855 1354 844 1294Q833 1233 782.50 1191Q732 1149 673 1149Q613 1149 578 1191Q543 1233 554 1294Q565 1354 614.50 1396Q664 1438 724 1438M1100 1438Q1159 1438 1195 1396Q1231 1354 1220 1294Q1209 1233 1158.50 1191Q1108 1149 1049 1149Q989 1149 954 1191Q919 1233 930 1294Q941 1354 990.50 1396Q1040 1438 1100 1438Z"  horiz-adv-x="1318" vert-adv-y="2048"  />

      
      <glyph glyph-name="unif7" unicode="&#xf7;" d="M125 732L987 732L987 525L125 525L125 732M556 1057Q616 1057 658.50 1015Q701 973 701 913Q701 852 658.50 810Q616 768 556 768Q496 768 453.50 810Q411 852 411 913Q411 973 453.50 1015Q496 1057 556 1057M556 488Q616 488 658.50 446Q701 404 701 344Q701 283 658.50 241Q616 199 556 199Q496 199 453.50 241Q411 283 411 344Q411 404 453.50 446Q496 488 556 488Z"  horiz-adv-x="1112" vert-adv-y="2048"  />

      
      <glyph glyph-name="unif8" unicode="&#xf8;" d="M902 898Q897 900 816 900Q669 900 546 795.50Q423 691 397 544Q371 396 446 293L902 898M606 190Q611 188 691 188Q839 188 961.50 292Q1084 396 1110 544Q1136 691 1050 796L606 190M312 105L282 142Q144 309 185 544Q227 780 423 946.50Q619 1113 854 1113Q988 1113 1043 1084L1190 1281L1358 1186L1197 984L1227 946Q1364 780 1322 544Q1281 309 1085 142Q889-25 653-25Q520-25 466 4L318-192L148-103L312 105Z"  horiz-adv-x="1317" vert-adv-y="2048"  />

      
      <glyph glyph-name="unif9" unicode="&#xf9;" d="M583-14Q388-14 290 105Q192 224 221 403L331 1029L539 1029L430 411Q414 322 468 258Q522 194 619 194Q708 194 784.50 257.50Q861 321 877 411L986 1029L1193 1029L1083 403Q1048 224 909 105Q769-14 583-14M936 1128L739 1128L516 1407L768 1407L936 1128Z"  horiz-adv-x="1162" vert-adv-y="2048"  />

      
      <glyph glyph-name="unifa" unicode="&#xfa;" d="M583-14Q388-14 290 105Q192 224 221 403L331 1029L539 1029L430 411Q414 322 468 258Q522 194 619 194Q708 194 784.50 257.50Q861 321 877 411L986 1029L1193 1029L1083 403Q1048 224 909 105Q769-14 583-14M889 1407L1141 1407L820 1128L623 1128L889 1407Z"  horiz-adv-x="1162" vert-adv-y="2048"  />

      
      <glyph glyph-name="unifb" unicode="&#xfb;" d="M583-14Q388-14 290 105Q192 224 221 403L331 1029L539 1029L430 411Q414 322 468 258Q522 194 619 194Q708 194 784.50 257.50Q861 321 877 411L986 1029L1193 1029L1083 403Q1048 224 909 105Q769-14 583-14M878 1178L800 1260L697 1178L478 1178L753 1416L900 1416L1099 1178L878 1178Z"  horiz-adv-x="1162" vert-adv-y="2048"  />

      
      <glyph glyph-name="unifc" unicode="&#xfc;" d="M583-14Q388-14 290 105Q192 224 221 403L331 1029L539 1029L430 411Q414 322 468 258Q522 194 619 194Q708 194 784.50 257.50Q861 321 877 411L986 1029L1193 1029L1083 403Q1048 224 909 105Q769-14 583-14M646 1438Q705 1438 740.50 1396Q776 1354 766 1294Q755 1233 704.50 1191Q654 1149 595 1149Q535 1149 500 1191Q465 1233 476 1294Q486 1354 536 1396Q586 1438 646 1438M1022 1438Q1081 1438 1116.50 1396Q1152 1354 1142 1294Q1131 1233 1080.50 1191Q1030 1149 971 1149Q911 1149 876 1191Q841 1233 852 1294Q862 1354 912 1396Q962 1438 1022 1438Z"  horiz-adv-x="1162" vert-adv-y="2048"  />

      
      <glyph glyph-name="unifd" unicode="&#xfd;" d="M342-346L123-346L498 229L256 1029L489 1029L651 466L1011 1029L1243 1029L342-346M877 1407L1129 1407L808 1128L611 1128L877 1407Z"  horiz-adv-x="1139" vert-adv-y="2048"  />

      
      <glyph glyph-name="unife" unicode="&#xfe;" d="M438 462Q441 368 504 291Q591 186 738 186Q886 186 1008.50 290.50Q1131 395 1158 543Q1184 691 1097.50 795Q1011 899 863 899Q716 899 593 795Q502 718 467 623L438 462M385 158L296-345L89-345L432 1600L639 1600L519 921Q703 1111 901 1111Q1137 1111 1274 945Q1411 779 1370 543Q1328 308 1132.50 141.50Q937-25 700-25Q502-25 385 158Z"  horiz-adv-x="1374" vert-adv-y="2048"  />

      
      <glyph glyph-name="uniff" unicode="&#xff;" d="M342-346L123-346L498 229L256 1029L489 1029L651 466L1011 1029L1243 1029L342-346M634 1438Q693 1438 728.50 1396Q764 1354 754 1294Q743 1233 692.50 1191Q642 1149 583 1149Q523 1149 488 1191Q453 1233 464 1294Q474 1354 524 1396Q574 1438 634 1438M1010 1438Q1069 1438 1104.50 1396Q1140 1354 1130 1294Q1119 1233 1068.50 1191Q1018 1149 959 1149Q899 1149 864 1191Q829 1233 840 1294Q850 1354 900 1396Q950 1438 1010 1438Z"  horiz-adv-x="1139" vert-adv-y="2048"  />

      
      <glyph glyph-name="uni0100" unicode="&#x0100;" d="M961 773L890 1148L688 773L961 773M1026 1600L1326 0L1106 0L1000 566L576 566L271 0L50 0L914 1600L1026 1600M759 2008L1326 2008L1289 1801L722 1801L759 2008Z"  horiz-adv-x="1376" vert-adv-y="2048"  />

      
      <glyph glyph-name="uni0101" unicode="&#x0101;" d="M1124 466L1151 618Q1150 715 1086 794Q999 898 852 898Q704 898 581.50 794Q459 690 433 542Q407 395 493 290.50Q579 186 727 186Q874 186 997 290Q1089 369 1124 466M1211 957L1223 1029L1431 1029L1250-1L1042-1L1065 128Q887-27 689-27Q453-27 316 139.50Q179 306 221 542Q262 778 458 944.50Q654 1111 890 1111Q1088 1111 1211 957M657 1437L1224 1437L1188 1230L621 1230L657 1437Z"  horiz-adv-x="1401" vert-adv-y="2048"  />

      
      <glyph glyph-name="uni0102" unicode="&#x0102;" d="M961 773L890 1148L688 773L961 773M1026 1600L1326 0L1106 0L1000 566L576 566L271 0L50 0L914 1600L1026 1600M949 1984Q949 1922 962 1907Q983 1881 1020 1881Q1056 1881 1087 1908Q1104 1922 1125 1984L1315 1984Q1272 1861 1203 1802Q1108 1720 992 1720Q875 1720 808 1802Q756 1865 760 1984L949 1984Z"  horiz-adv-x="1376" vert-adv-y="2048"  />

      
      <glyph glyph-name="uni0103" unicode="&#x0103;" d="M1124 466L1151 618Q1150 715 1086 794Q999 898 852 898Q704 898 581.50 794Q459 690 433 542Q407 395 493 290.50Q579 186 727 186Q874 186 997 290Q1089 369 1124 466M1211 957L1223 1029L1431 1029L1250-1L1042-1L1065 128Q887-27 689-27Q453-27 316 139.50Q179 306 221 542Q262 778 458 944.50Q654 1111 890 1111Q1088 1111 1211 957M848 1413Q848 1351 861 1336Q882 1310 919 1310Q955 1310 986 1337Q1003 1351 1024 1413L1214 1413Q1171 1290 1102 1231Q1007 1149 891 1149Q774 1149 707 1231Q655 1294 659 1413L848 1413Z"  horiz-adv-x="1401" vert-adv-y="2048"  />

      
      <glyph glyph-name="uni0104" unicode="&#x0104;" d="M961 773L890 1148L688 773L961 773M1092 75L1000 566L576 566L271 0L50 0L914 1600L1026 1600L1326 0L1171 0Q1107-71 1099-119Q1096-135 1100-148Q1108-185 1139-185Q1176-185 1244-134L1275-287Q1145-337 1082-337Q987-337 939-271Q901-217 914-141Q917-124 922-106Q953-10 1092 75Z"  horiz-adv-x="1376" vert-adv-y="2048"  />

      
      <glyph glyph-name="uni0105" unicode="&#x0105;" d="M1124 466L1151 618Q1150 715 1086 794Q999 898 852 898Q704 898 581.50 794Q459 690 433 542Q407 395 493 290.50Q579 186 727 186Q874 186 997 290Q1089 369 1124 466M1053 60L1065 128Q887-27 689-27Q453-27 316 139.50Q179 306 221 542Q262 778 458 944.50Q654 1111 890 1111Q1088 1111 1211 957L1223 1029L1431 1029L1250-1L1154-1Q1091-72 1083-119Q1080-135 1084-148Q1092-185 1123-185Q1160-185 1228-134L1259-287Q1129-337 1066-337Q971-337 923-271Q885-217 898-141Q901-124 906-106Q935-18 1053 60Z"  horiz-adv-x="1401" vert-adv-y="2048"  />

      
      <glyph glyph-name="uni0106" unicode="&#x0106;" d="M1455 381L1585 242Q1256-17 939-17Q600-17 403 222Q206 461 266 800Q325 1138 606.50 1378Q888 1618 1227 1618Q1544 1618 1782 1359L1602 1218Q1422 1408 1190 1408Q939 1408 729 1230Q519 1052 475 800Q430 547 577 369Q724 191 975 191Q1207 191 1455 381M1243 1978L1495 1978L1174 1699L977 1699L1243 1978Z"  horiz-adv-x="1642" vert-adv-y="2048"  />

      
      <glyph glyph-name="uni0107" unicode="&#x0107;" d="M1027 353L1221 279Q1127 174 1087 140Q890-27 654-27Q419-27 281.50 140Q144 307 186 543Q227 779 423.50 946Q620 1113 855 1113Q1091 1113 1229 946Q1257 912 1315 809L1094 733Q1063 782 1051 796Q966 900 818 900Q671 900 548 795.50Q425 691 399 543Q373 396 459 291.50Q545 187 692 187Q840 187 963 291Q979 305 1027 353M940 1407L1192 1407L870 1128L673 1128L940 1407Z"  horiz-adv-x="1262" vert-adv-y="2048"  />

      
      <glyph glyph-name="uni0108" unicode="&#x0108;" d="M1455 381L1585 242Q1256-17 939-17Q600-17 403 222Q206 461 266 800Q325 1138 606.50 1378Q888 1618 1227 1618Q1544 1618 1782 1359L1602 1218Q1422 1408 1190 1408Q939 1408 729 1230Q519 1052 475 800Q430 547 577 369Q724 191 975 191Q1207 191 1455 381M1232 1749L1154 1831L1051 1749L832 1749L1107 1987L1254 1987L1453 1749L1232 1749Z"  horiz-adv-x="1642" vert-adv-y="2048"  />

      
      <glyph glyph-name="uni0109" unicode="&#x0109;" d="M1027 353L1221 279Q1127 174 1087 140Q890-27 654-27Q419-27 281.50 140Q144 307 186 543Q227 779 423.50 946Q620 1113 855 1113Q1091 1113 1229 946Q1257 912 1315 809L1094 733Q1063 782 1051 796Q966 900 818 900Q671 900 548 795.50Q425 691 399 543Q373 396 459 291.50Q545 187 692 187Q840 187 963 291Q979 305 1027 353M928 1178L851 1260L747 1178L528 1178L803 1416L950 1416L1149 1178L928 1178Z"  horiz-adv-x="1262" vert-adv-y="2048"  />

      
      <glyph glyph-name="uni010A" unicode="&#x010A;" d="M1455 381L1585 242Q1256-17 939-17Q600-17 403 222Q206 461 266 800Q325 1138 606.50 1378Q888 1618 1227 1618Q1544 1618 1782 1359L1602 1218Q1422 1408 1190 1408Q939 1408 729 1230Q519 1052 475 800Q430 547 577 369Q724 191 975 191Q1207 191 1455 381M1188 2007Q1242 2007 1274.50 1969Q1307 1931 1297 1875Q1287 1819 1241.50 1781Q1196 1743 1142 1743Q1087 1743 1054.50 1781Q1022 1819 1032 1875Q1042 1931 1087.50 1969Q1133 2007 1188 2007Z"  horiz-adv-x="1642" vert-adv-y="2048"  />

      
      <glyph glyph-name="uni010B" unicode="&#x010B;" d="M1027 353L1221 279Q1127 174 1087 140Q890-27 654-27Q419-27 281.50 140Q144 307 186 543Q227 779 423.50 946Q620 1113 855 1113Q1091 1113 1229 946Q1257 912 1315 809L1094 733Q1063 782 1051 796Q966 900 818 900Q671 900 548 795.50Q425 691 399 543Q373 396 459 291.50Q545 187 692 187Q840 187 963 291Q979 305 1027 353M885 1436Q939 1436 971 1398Q1003 1360 993 1304Q983 1248 937.50 1210Q892 1172 838 1172Q783 1172 750.50 1210Q718 1248 728 1304Q738 1360 784 1398Q830 1436 885 1436Z"  horiz-adv-x="1262" vert-adv-y="2048"  />

      
      <glyph glyph-name="uni010C" unicode="&#x010C;" d="M1455 381L1585 242Q1256-17 939-17Q600-17 403 222Q206 461 266 800Q325 1138 606.50 1378Q888 1618 1227 1618Q1544 1618 1782 1359L1602 1218Q1422 1408 1190 1408Q939 1408 729 1230Q519 1052 475 800Q430 547 577 369Q724 191 975 191Q1207 191 1455 381M1495 1987L1212 1749L1065 1749L874 1987L1093 1987L1167 1905L1274 1987L1495 1987Z"  horiz-adv-x="1642" vert-adv-y="2048"  />

      
      <glyph glyph-name="uni010D" unicode="&#x010D;" d="M1027 353L1221 279Q1127 174 1087 140Q890-27 654-27Q419-27 281.50 140Q144 307 186 543Q227 779 423.50 946Q620 1113 855 1113Q1091 1113 1229 946Q1257 912 1315 809L1094 733Q1063 782 1051 796Q966 900 818 900Q671 900 548 795.50Q425 691 399 543Q373 396 459 291.50Q545 187 692 187Q840 187 963 291Q979 305 1027 353M1191 1416L908 1178L761 1178L570 1416L789 1416L864 1334L970 1416L1191 1416Z"  horiz-adv-x="1262" vert-adv-y="2048"  />

      
      <glyph glyph-name="uni010E" unicode="&#x010E;" d="M602 1389L394 210Q641 210 827 369Q1036 547 1081 800Q1125 1052 979 1231Q849 1389 602 1389M584 1600Q974 1598 1153 1379Q1350 1138 1290 800Q1230 461 949 221Q692 2 302 0L150 0L432 1600L584 1600M1310 1987L1027 1749L880 1749L689 1987L908 1987L983 1905L1089 1987L1310 1987Z"  horiz-adv-x="1250" vert-adv-y="2048"  />

      
      <glyph glyph-name="uni010F" unicode="&#x010F;" d="M1125 466L1152 619Q1151 716 1086 795Q1001 900 853 900Q705 900 582 795Q459 690 433 543Q407 395 493 291Q579 187 727 187Q875 187 997 291Q1090 370 1125 466M1212 958L1325 1600L1533 1600L1251 0L1043 0L1065 128Q888-27 689-27Q453-27 316 140Q179 307 221 543Q262 779 458 946Q654 1113 890 1113Q1089 1113 1212 958M1601 1363Q1567 1405 1577 1466Q1588 1526 1638 1568Q1688 1610 1748 1610Q1807 1610 1842.50 1568Q1878 1526 1867 1466Q1862 1434 1844 1404L1698 1185L1509 1185L1601 1363Z"  horiz-adv-x="1619" vert-adv-y="2048"  />

      
      <glyph glyph-name="uni0110" unicode="&#x0110;" d="M309 903L432 1600L584 1600Q974 1598 1153 1379Q1350 1138 1290 800Q1230 461 949 221Q692 2 302 0L150 0L273 697L83 697L119 903L309 903M516 903L863 903L827 697L480 697L394 210Q641 210 827 369Q1037 547 1081 800Q1126 1052 979 1231Q849 1389 602 1389L516 903Z"  horiz-adv-x="1250" vert-adv-y="2048"  />

      
      <glyph glyph-name="uni0111" unicode="&#x0111;" d="M1125 466L1152 619Q1151 716 1086 795Q1001 900 853 900Q705 900 582 795Q459 690 433 543Q407 395 493 291Q579 187 727 187Q875 187 997 291Q1090 370 1125 466M1467 1225L1251 0L1043 0L1065 128Q888-27 689-27Q453-27 316 140Q179 307 221 543Q262 779 458 946Q654 1113 890 1113Q1089 1113 1212 958L1259 1225L793 1225L829 1431L1295 1431L1325 1600L1533 1600L1503 1431L1673 1431L1637 1225L1467 1225Z"  horiz-adv-x="1401" vert-adv-y="2048"  />

      
      <glyph glyph-name="uni0112" unicode="&#x0112;" d="M1294 1600L1258 1393L603 1393L516 904L1171 904L1135 697L480 697L394 208L1049 208L1012 0L150 0L432 1600L1294 1600M652 2008L1219 2008L1182 1801L615 1801L652 2008Z"  horiz-adv-x="1137" vert-adv-y="2048"  />

      
      <glyph glyph-name="uni0113" unicode="&#x0113;" d="M511 233Q555 187 692 187Q840 187 963 291Q979 305 1027 353L1221 279Q1127 174 1087 140Q890-27 654-27Q419-27 281.50 140Q144 307 186 543Q227 779 423.50 946Q620 1113 855 1113Q1057 1113 1188 991Q1209 970 1229 946Q1237 936 1275 883L1152 778L511 233M970 873Q940 900 818 900Q671 900 548 795.50Q425 691 399 543Q377 422 398 386L970 873M601 1437L1168 1437L1131 1230L564 1230L601 1437Z"  horiz-adv-x="1262" vert-adv-y="2048"  />

      
      <glyph glyph-name="uni0114" unicode="&#x0114;" d="M1294 1600L1258 1393L603 1393L516 904L1171 904L1135 697L480 697L394 208L1049 208L1012 0L150 0L432 1600L1294 1600M842 1984Q842 1922 855 1907Q876 1881 913 1881Q949 1881 980 1908Q997 1922 1018 1984L1208 1984Q1165 1861 1096 1802Q1001 1720 885 1720Q768 1720 701 1802Q649 1865 653 1984L842 1984Z"  horiz-adv-x="1137" vert-adv-y="2048"  />

      
      <glyph glyph-name="uni0115" unicode="&#x0115;" d="M511 233Q555 187 692 187Q840 187 963 291Q979 305 1027 353L1221 279Q1127 174 1087 140Q890-27 654-27Q419-27 281.50 140Q144 307 186 543Q227 779 423.50 946Q620 1113 855 1113Q1057 1113 1188 991Q1209 970 1229 946Q1237 936 1275 883L1152 778L511 233M970 873Q940 900 818 900Q671 900 548 795.50Q425 691 399 543Q377 422 398 386L970 873M792 1413Q792 1351 804 1336Q825 1310 862 1310Q898 1310 929 1337Q947 1351 968 1413L1158 1413Q1114 1290 1045 1231Q950 1149 834 1149Q717 1149 650 1231Q599 1294 603 1413L792 1413Z"  horiz-adv-x="1262" vert-adv-y="2048"  />

      
      <glyph glyph-name="uni0116" unicode="&#x0116;" d="M1294 1600L1258 1393L603 1393L516 904L1171 904L1135 697L480 697L394 208L1049 208L1012 0L150 0L432 1600L1294 1600M935 2007Q989 2007 1021.50 1969Q1054 1931 1044 1875Q1034 1819 988.50 1781Q943 1743 889 1743Q834 1743 801.50 1781Q769 1819 779 1875Q789 1931 834.50 1969Q880 2007 935 2007Z"  horiz-adv-x="1137" vert-adv-y="2048"  />

      
      <glyph glyph-name="uni0117" unicode="&#x0117;" d="M511 233Q555 187 692 187Q840 187 963 291Q979 305 1027 353L1221 279Q1127 174 1087 140Q890-27 654-27Q419-27 281.50 140Q144 307 186 543Q227 779 423.50 946Q620 1113 855 1113Q1057 1113 1188 991Q1209 970 1229 946Q1237 936 1275 883L1152 778L511 233M970 873Q940 900 818 900Q671 900 548 795.50Q425 691 399 543Q377 422 398 386L970 873M885 1436Q939 1436 971 1398Q1003 1360 993 1304Q983 1248 937.50 1210Q892 1172 838 1172Q783 1172 750.50 1210Q718 1248 728 1304Q738 1360 784 1398Q830 1436 885 1436Z"  horiz-adv-x="1262" vert-adv-y="2048"  />

      
      <glyph glyph-name="uni0118" unicode="&#x0118;" d="M679 0L150 0L432 1600L1294 1600L1258 1393L603 1393L516 904L1171 904L1135 697L480 697L394 208L1049 208L1012 0L857 0Q793-71 785-119Q782-135 786-148Q794-185 825-185Q862-185 930-134L961-287Q831-337 768-337Q673-337 625-271Q587-217 600-141Q603-124 608-106Q626-51 679 0Z"  horiz-adv-x="1137" vert-adv-y="2048"  />

      
      <glyph glyph-name="uni0119" unicode="&#x0119;" d="M970 873Q940 900 818 900Q671 900 548 795.50Q425 691 399 543Q377 422 398 386L970 873M728-23Q691-27 654-27Q419-27 281.50 140Q144 307 186 543Q227 779 423.50 946Q620 1113 855 1113Q1057 1113 1188 991Q1209 970 1229 946Q1237 936 1275 883L1152 778L511 233Q555 187 692 187Q840 187 963 291Q979 305 1027 353L1221 279Q1127 174 1087 140Q1052 110 1016 86Q868-46 855-120Q852-136 856-149Q864-186 895-186Q932-186 1000-135L1031-288Q900-338 837-338Q742-338 695-272Q656-218 670-142Q673-125 678-107Q692-64 728-23Z"  horiz-adv-x="1262" vert-adv-y="2048"  />

      
      <glyph glyph-name="uni011A" unicode="&#x011A;" d="M1294 1600L1258 1393L603 1393L516 904L1171 904L1135 697L480 697L394 208L1049 208L1012 0L150 0L432 1600L1294 1600M1242 1987L959 1749L812 1749L621 1987L840 1987L914 1905L1021 1987L1242 1987Z"  horiz-adv-x="1137" vert-adv-y="2048"  />

      
      <glyph glyph-name="uni011B" unicode="&#x011B;" d="M511 233Q555 187 692 187Q840 187 963 291Q979 305 1027 353L1221 279Q1127 174 1087 140Q890-27 654-27Q419-27 281.50 140Q144 307 186 543Q227 779 423.50 946Q620 1113 855 1113Q1057 1113 1188 991Q1209 970 1229 946Q1237 936 1275 883L1152 778L511 233M970 873Q940 900 818 900Q671 900 548 795.50Q425 691 399 543Q377 422 398 386L970 873M1191 1416L908 1178L761 1178L570 1416L789 1416L864 1334L970 1416L1191 1416Z"  horiz-adv-x="1262" vert-adv-y="2048"  />

      
      <glyph glyph-name="uni011C" unicode="&#x011C;" d="M1545 219Q1257-17 939-17Q600-17 403 222Q206 461 266 800Q325 1138 606.50 1378Q888 1618 1227 1618Q1544 1618 1782 1359L1602 1218Q1422 1408 1190 1408Q939 1408 729 1230Q519 1052 475 800Q430 547 577 369Q724 191 975 191Q1191 191 1353 305L1439 788L1646 788L1545 219M1232 1749L1154 1831L1051 1749L832 1749L1107 1987L1254 1987L1453 1749L1232 1749Z"  horiz-adv-x="1668" vert-adv-y="2048"  />

      
      <glyph glyph-name="uni011D" unicode="&#x011D;" d="M1152 623Q1149 718 1086 795Q1000 900 852 900Q704 900 581 795Q458 690 433 543Q406 395 492.50 290.50Q579 186 727 186Q875 186 997 290Q1087 367 1123 460L1152 623M1212 958L1224 1029L1432 1029L1297 264Q1244-36 1053-199Q860-346 624-346Q388-346 247-199Q219-165 162-61L381 13Q413-35 424-49Q511-153 658-153Q905-153 1057 171Q927-17 691-17Q455-17 317 145Q179 307 221 543Q262 779 458 945.50Q654 1112 890 1112Q1089 1112 1212 958M985 1178L907 1260L804 1178L585 1178L860 1416L1007 1416L1206 1178L985 1178Z"  horiz-adv-x="1405" vert-adv-y="2048"  />

      
      <glyph glyph-name="uni011E" unicode="&#x011E;" d="M1545 219Q1257-17 939-17Q600-17 403 222Q206 461 266 800Q325 1138 606.50 1378Q888 1618 1227 1618Q1544 1618 1782 1359L1602 1218Q1422 1408 1190 1408Q939 1408 729 1230Q519 1052 475 800Q430 547 577 369Q724 191 975 191Q1191 191 1353 305L1439 788L1646 788L1545 219M1095 1984Q1095 1922 1107 1907Q1129 1881 1166 1881Q1202 1881 1233 1908Q1250 1922 1271 1984L1461 1984Q1417 1861 1349 1802Q1253 1720 1137 1720Q1020 1720 954 1802Q902 1865 906 1984L1095 1984Z"  horiz-adv-x="1668" vert-adv-y="2048"  />

      
      <glyph glyph-name="uni011F" unicode="&#x011F;" d="M1152 623Q1149 718 1086 795Q1000 900 852 900Q704 900 581 795Q458 690 433 543Q406 395 492.50 290.50Q579 186 727 186Q875 186 997 290Q1087 367 1123 460L1152 623M1212 958L1224 1029L1432 1029L1297 264Q1244-36 1053-199Q860-346 624-346Q388-346 247-199Q219-165 162-61L381 13Q413-35 424-49Q511-153 658-153Q905-153 1057 171Q927-17 691-17Q455-17 317 145Q179 307 221 543Q262 779 458 945.50Q654 1112 890 1112Q1089 1112 1212 958M848 1413Q848 1351 861 1336Q882 1310 919 1310Q955 1310 986 1337Q1003 1351 1024 1413L1214 1413Q1171 1290 1102 1231Q1007 1149 891 1149Q774 1149 707 1231Q655 1294 659 1413L848 1413Z"  horiz-adv-x="1405" vert-adv-y="2048"  />

      
      <glyph glyph-name="uni0120" unicode="&#x0120;" d="M1545 219Q1257-17 939-17Q600-17 403 222Q206 461 266 800Q325 1138 606.50 1378Q888 1618 1227 1618Q1544 1618 1782 1359L1602 1218Q1422 1408 1190 1408Q939 1408 729 1230Q519 1052 475 800Q430 547 577 369Q724 191 975 191Q1191 191 1353 305L1439 788L1646 788L1545 219M1188 2007Q1242 2007 1274.50 1969Q1307 1931 1297 1875Q1287 1819 1241.50 1781Q1196 1743 1142 1743Q1087 1743 1054.50 1781Q1022 1819 1032 1875Q1042 1931 1087.50 1969Q1133 2007 1188 2007Z"  horiz-adv-x="1668" vert-adv-y="2048"  />

      
      <glyph glyph-name="uni0121" unicode="&#x0121;" d="M1152 623Q1149 718 1086 795Q1000 900 852 900Q704 900 581 795Q458 690 433 543Q406 395 492.50 290.50Q579 186 727 186Q875 186 997 290Q1087 367 1123 460L1152 623M1212 958L1224 1029L1432 1029L1297 264Q1244-36 1053-199Q860-346 624-346Q388-346 247-199Q219-165 162-61L381 13Q413-35 424-49Q511-153 658-153Q905-153 1057 171Q927-17 691-17Q455-17 317 145Q179 307 221 543Q262 779 458 945.50Q654 1112 890 1112Q1089 1112 1212 958M941 1436Q995 1436 1027.50 1398Q1060 1360 1050 1304Q1040 1248 994.50 1210Q949 1172 895 1172Q840 1172 807.50 1210Q775 1248 785 1304Q795 1360 840.50 1398Q886 1436 941 1436Z"  horiz-adv-x="1405" vert-adv-y="2048"  />

      
      <glyph glyph-name="uni0122" unicode="&#x0122;" d="M779-2Q551 42 403 222Q206 461 266 800Q325 1138 606.50 1378Q888 1618 1227 1618Q1544 1618 1782 1359L1602 1218Q1422 1408 1190 1408Q939 1408 729 1230Q519 1052 475 800Q430 547 577 369Q724 191 975 191Q1191 191 1353 305L1439 788L1646 788L1545 219Q1257-17 939-17L920-17L905-44Q972-82 984-133Q986-147 987-160Q987-173 985-186Q977-229 940-267Q880-326 783-340Q763-343 738-343Q680-343 592-328L649-202Q702-228 738-228Q744-228 749-227Q780-223 795-192Q799-185 801-177Q801-173 801-169Q800-141 719-113L779-2Z"  horiz-adv-x="1668" vert-adv-y="2048"  />

      
      <glyph glyph-name="uni0123" unicode="&#x0123;" d="M1152 623Q1149 718 1086 795Q1000 900 852 900Q704 900 581 795Q458 690 433 543Q406 395 492.50 290.50Q579 186 727 186Q875 186 997 290Q1087 367 1123 460L1152 623M1212 958L1224 1029L1432 1029L1297 264Q1244-36 1053-199Q860-346 624-346Q388-346 247-199Q219-165 162-61L381 13Q413-35 424-49Q511-153 658-153Q905-153 1057 171Q927-17 691-17Q455-17 317 145Q179 307 221 543Q262 779 458 945.50Q654 1112 890 1112Q1089 1112 1212 958M1040 1432Q1075 1390 1064 1329Q1054 1269 1004 1227Q954 1185 894 1185Q835 1185 799.50 1227Q764 1269 774 1329Q780 1361 797 1391L944 1610L1133 1610L1040 1432Z"  horiz-adv-x="1405" vert-adv-y="2048"  />

      
      <glyph glyph-name="uni0124" unicode="&#x0124;" d="M474 662L357 0L150 0L432 1600L639 1600L510 869L1004 869L1133 1600L1340 1600L1058 0L851 0L968 662L474 662M1002 1749L924 1831L821 1749L602 1749L877 1987L1024 1987L1223 1749L1002 1749Z"  horiz-adv-x="1208" vert-adv-y="2048"  />

      
      <glyph glyph-name="uni0125" unicode="&#x0125;" d="M432 1600L640 1600L520 918Q636 1085 801 1085Q966 1085 1044 966.50Q1122 848 1093 669L975 0L768 0L885 661Q900 750 861 813.50Q822 877 713 877Q584 877 488 739L358 0L150 0L432 1600M1002 1749L924 1831L821 1749L602 1749L877 1987L1024 1987L1223 1749L1002 1749Z"  horiz-adv-x="1125" vert-adv-y="2048"  />

      
      <glyph glyph-name="uni0126" unicode="&#x0126;" d="M1269 1194L1058 0L851 0L968 662L474 662L357 0L150 0L361 1194L223 1194L259 1400L397 1400L432 1600L639 1600L604 1400L1098 1400L1133 1600L1340 1600L1305 1400L1443 1400L1407 1194L1269 1194M568 1194L510 869L1004 869L1062 1194L568 1194Z"  horiz-adv-x="1208" vert-adv-y="2048"  />

      
      <glyph glyph-name="uni0127" unicode="&#x0127;" d="M402 1431L432 1600L640 1600L610 1431L1056 1431L1020 1225L574 1225L520 918Q636 1085 801 1085Q966 1085 1044 966.50Q1122 848 1093 669L975 0L768 0L885 661Q900 750 861 813.50Q822 877 713 877Q584 877 488 739L358 0L150 0L366 1225L226 1225L262 1431L402 1431Z"  horiz-adv-x="1125" vert-adv-y="2048"  />

      
      <glyph glyph-name="uni0128" unicode="&#x0128;" d="M659 1600L377 0L170 0L452 1600L659 1600M641 1946Q641 1946 667 1917Q693 1888 719 1888L719 1887Q749 1887 756 1926Q760 1952 755 1995L941 1995Q864 1775 749 1743Q720 1735 692 1735Q618 1735 568.50 1792Q519 1849 491 1849L487 1849Q457 1847 450 1810Q446 1785 453 1744L266 1744Q343 1964 459 1996Q488 2004 516 2004Q589 2004 641 1946Z"  horiz-adv-x="548" vert-adv-y="2048"  />

      
      <glyph glyph-name="uni0129" unicode="&#x0129;" d="M559 1030L377 0L170 0L352 1030L559 1030M540.50 1375Q540.50 1375 566.25 1346Q592 1317 618 1317L618 1316Q648 1316 655 1355Q660 1381 654 1424L840 1424Q763 1204 649 1172Q619 1164 591 1164Q517 1164 468 1221Q419 1278 391 1278L387 1278Q356 1276 350 1239Q345 1214 352 1173L165 1173Q243 1393 358 1425Q388 1433 416 1433Q489 1433 540.50 1375Z"  horiz-adv-x="548" vert-adv-y="2048"  />

      
      <glyph glyph-name="uni012A" unicode="&#x012A;" d="M659 1600L377 0L170 0L452 1600L659 1600M344 2008L911 2008L875 1801L308 1801L344 2008Z"  horiz-adv-x="548" vert-adv-y="2048"  />

      
      <glyph glyph-name="uni012B" unicode="&#x012B;" d="M559 1030L377 0L170 0L352 1030L559 1030M243 1437L810 1437L774 1230L207 1230L243 1437Z"  horiz-adv-x="548" vert-adv-y="2048"  />

      
      <glyph glyph-name="uni012C" unicode="&#x012C;" d="M659 1600L377 0L170 0L452 1600L659 1600M535 1984Q535 1922 547 1907Q569 1881 606 1881Q642 1881 672 1908Q690 1922 711 1984L901 1984Q857 1861 789 1802Q693 1720 577 1720Q460 1720 394 1802Q342 1865 346 1984L535 1984Z"  horiz-adv-x="548" vert-adv-y="2048"  />

      
      <glyph glyph-name="uni012D" unicode="&#x012D;" d="M559 1030L377 0L170 0L352 1030L559 1030M434 1413Q434 1351 447 1336Q468 1310 505 1310Q541 1310 572 1337Q589 1351 610 1413L800 1413Q756 1290 688 1231Q593 1149 477 1149Q360 1149 293 1231Q241 1294 245 1413L434 1413Z"  horiz-adv-x="548" vert-adv-y="2048"  />

      
      <glyph glyph-name="uni012E" unicode="&#x012E;" d="M188 100L452 1600L659 1600L377 0L223 0Q159-71 150-119Q147-135 151-148Q160-185 191-185Q228-185 296-134L327-287Q196-337 133-337Q38-337-10-271Q-48-217-35-141Q-32-124-26-106Q9 5 188 100Z"  horiz-adv-x="548" vert-adv-y="2048"  />

      
      <glyph glyph-name="uni012F" unicode="&#x012F;" d="M526 1452Q586 1452 621.50 1410Q657 1368 647 1307Q636 1246 585.50 1204Q535 1162 475 1162Q416 1162 380.50 1204Q345 1246 356 1307Q366 1368 416.50 1410Q467 1452 526 1452M180 73L349 1029L556 1029L374 0L262 0Q198-71 189-119Q186-135 190-148Q199-185 230-185Q267-185 335-134L366-287Q235-337 172-337Q77-337 29-271Q-9-217 4-141Q7-124 13-106Q43-11 180 73Z"  horiz-adv-x="541" vert-adv-y="2048"  />

      
      <glyph glyph-name="uni0131" unicode="&#x0131;" d="M559 1030L377 0L170 0L352 1030L559 1030Z"  horiz-adv-x="548" vert-adv-y="2048"  />

      
      <glyph glyph-name="uni0132" unicode="&#x0132;" d="M659 1600L377 0L170 0L452 1600L659 1600M1389 343Q1360 177 1253 85Q1139-13 1001-13Q864-13 784.50 84.50Q705 182 734 344L909 408Q910 256 947 221Q974 194 1028 194L1032 194Q1089 195 1133 231Q1168 262 1184 352L1404 1600L1611 1600L1389 343Z"  horiz-adv-x="1485" vert-adv-y="2048"  />

      
      <glyph glyph-name="uni0133" unicode="&#x0133;" d="M555 1029L374 0L167 0L348 1029L555 1029M526 1452Q586 1452 621.50 1410Q657 1368 646 1307Q636 1246 585.50 1204Q535 1162 475 1162Q416 1162 380.50 1204Q345 1246 355 1307Q366 1368 416.50 1410Q467 1452 526 1452M588-10Q702 2 713 60L883 1029L1090 1029L920 62Q875-191 552-216L588-10M1061 1452Q1121 1452 1156.50 1410Q1192 1368 1181 1307Q1171 1246 1120.50 1204Q1070 1162 1010 1162Q951 1162 915.50 1204Q880 1246 890 1307Q901 1368 951.50 1410Q1002 1452 1061 1452Z"  horiz-adv-x="1102" vert-adv-y="2048"  />

      
      <glyph glyph-name="uni0134" unicode="&#x0134;" d="M841 343Q812 177 705 85Q591-13 453-13Q316-13 236.50 84.50Q157 182 186 344L361 408Q362 256 399 221Q426 194 480 194L484 194Q541 195 585 231Q620 262 636 352L856 1600L1063 1600L841 343M1051 1749L973 1831L870 1749L651 1749L926 1987L1073 1987L1272 1749L1051 1749Z"  horiz-adv-x="937" vert-adv-y="2048"  />

      
      <glyph glyph-name="uni0135" unicode="&#x0135;" d="M148-10Q262 2 273 60L444 1029L651 1029L480 62Q435-191 112-216L148-10M645 1149L568 1231L464 1149L245 1149L520 1387L667 1387L866 1149L645 1149Z"  horiz-adv-x="685" vert-adv-y="2048"  />

      
      <glyph glyph-name="uni0136" unicode="&#x0136;" d="M490 755L357 0L150 0L432 1600L639 1600L550 1096L1017 1600L1279 1600L672 942L1117 0L866 0L507 772L490 755M673 17L639-44Q707-82 719-133Q720-147 721-160Q721-173 719-186Q712-229 674-267Q615-326 517-340Q498-343 473-343Q415-343 326-328L383-202Q436-228 472-228Q478-228 483-227Q515-223 529-192Q533-185 535-177Q535-173 535-169Q534-141 453-113L524 17L673 17Z"  horiz-adv-x="1206" vert-adv-y="2048"  />

      
      <glyph glyph-name="uni0137" unicode="&#x0137;" d="M966 1029L627 685L894 0L647 0L457 513L447 502L358 0L150 0L400 1415L608 1415L505 833L699 1029L966 1029M627 17L593-44Q661-82 673-133Q674-147 675-160Q675-173 673-186Q666-229 628-267Q569-326 471-340Q452-343 427-343Q369-343 280-328L337-202Q390-228 426-228Q432-228 437-227Q469-223 483-192Q487-185 489-177Q489-173 489-169Q488-141 407-113L478 17L627 17Z"  horiz-adv-x="944" vert-adv-y="2048"  />

      
      <glyph glyph-name="uni0138" unicode="&#x0138;" d="M966 1030L627 685L893 0L646 0L457 514L446 503L357 0L150 0L332 1030L539 1030L504 833L699 1030L966 1030Z"  horiz-adv-x="943" vert-adv-y="2048"  />

      
      <glyph glyph-name="uni0139" unicode="&#x0139;" d="M150 0L432 1600L639 1600L394 208L966 208L929 0L150 0M941 1937L1131 1937L877 1658L729 1658L941 1937Z"  horiz-adv-x="1019" vert-adv-y="2048"  />

      
      <glyph glyph-name="uni013A" unicode="&#x013A;" d="M641 1601L359 0L151 0L433 1601L641 1601M642 1937L831 1937L578 1658L430 1658L642 1937Z"  horiz-adv-x="508" vert-adv-y="2048"  />

      
      <glyph glyph-name="uni013B" unicode="&#x013B;" d="M487 0L150 0L432 1600L639 1600L394 208L966 208L929 0L636 0L611-44Q679-82 691-133Q692-147 693-160Q693-173 691-186Q684-229 646-267Q587-326 489-340Q470-343 445-343Q387-343 298-328L355-202Q408-228 444-228Q450-228 455-227Q487-223 501-192Q505-185 507-177Q507-173 507-169Q506-141 425-113L487 0Z"  horiz-adv-x="1019" vert-adv-y="2048"  />

      
      <glyph glyph-name="uni013C" unicode="&#x013C;" d="M187 0L151 0L433 1601L641 1601L359 0L335 0L311-44Q378-82 390-133Q392-147 393-160Q393-173 391-186Q383-229 346-267Q286-326 189-340Q169-343 144-343Q86-343-2-328L55-202Q108-228 144-228Q150-228 155-227Q187-223 201-192Q205-185 207-177Q207-173 207-169Q206-141 125-113L187 0Z"  horiz-adv-x="508" vert-adv-y="2048"  />

      
      <glyph glyph-name="uni013D" unicode="&#x013D;" d="M127 0L409 1600L617 1600L372 208L934 208L897 0L127 0M851 1363Q817 1405 827 1466Q838 1526 888 1568Q938 1610 998 1610Q1057 1610 1092.50 1568Q1128 1526 1117 1466Q1112 1434 1095 1404L948 1185L759 1185L851 1363Z"  horiz-adv-x="956" vert-adv-y="2048"  />

      
      <glyph glyph-name="uni013E" unicode="&#x013E;" d="M617 1600L335 0L127 0L409 1600L617 1600M651 1363Q617 1405 627 1466Q638 1526 688 1568Q738 1610 798 1610Q857 1610 892.50 1568Q928 1526 917 1466Q912 1434 895 1404L748 1185L559 1185L651 1363Z"  horiz-adv-x="679" vert-adv-y="2048"  />

      
      <glyph glyph-name="uni013F" unicode="&#x013F;" d="M127 0L409 1600L617 1600L372 208L934 208L897 0L127 0M887 932Q941 932 973.50 893.50Q1006 855 996 800Q986 745 940.50 706.50Q895 668 841 668Q787 668 754 706.50Q721 745 731 800Q741 855 787 893.50Q833 932 887 932Z"  horiz-adv-x="956" vert-adv-y="2048"  />

      
      <glyph glyph-name="uni0140" unicode="&#x0140;" d="M602 1600L320 0L112 0L394 1600L602 1600M677 932Q730 932 763 893.50Q796 855 786 800Q776 745 730 706.50Q684 668 631 668Q576 668 543.50 706.50Q511 745 521 800Q531 855 576.50 893.50Q622 932 677 932Z"  horiz-adv-x="595" vert-adv-y="2048"  />

      
      <glyph glyph-name="uni0141" unicode="&#x0141;" d="M581 919L1060 1260L1014 1002L535 661L455 208L1017 208L981 0L211 0L297 491L56 320L101 578L343 749L493 1600L701 1600L581 919Z"  horiz-adv-x="1038" vert-adv-y="2048"  />

      
      <glyph glyph-name="uni0142" unicode="&#x0142;" d="M301 835L436 1600L644 1600L539 1004L716 1130L670 872L493 745L362 0L154 0L255 576L79 450L124 708L301 835Z"  horiz-adv-x="517" vert-adv-y="2048"  />

      
      <glyph glyph-name="uni0143" unicode="&#x0143;" d="M432 1600L621 1600L1080 458L1281 1600L1489 1600L1207 0L1026 0L561 1156L357 0L150 0L432 1600M1088 1978L1340 1978L1019 1699L822 1699L1088 1978Z"  horiz-adv-x="1357" vert-adv-y="2048"  />

      
      <glyph glyph-name="uni0144" unicode="&#x0144;" d="M491 753L358 0L150 0L331 1029L539 1029L518 909Q614 1085 810 1085Q977 1085 1055 966.50Q1133 848 1104 669L986 0L779 0L896 661Q911 750 857.50 813.50Q804 877 714 877Q625 877 549 815Q506 778 491 753M877 1407L1129 1407L808 1128L611 1128L877 1407Z"  horiz-adv-x="1139" vert-adv-y="2048"  />

      
      <glyph glyph-name="uni0145" unicode="&#x0145;" d="M432 1600L621 1600L1080 458L1281 1600L1489 1600L1207 0L1026 0L561 1156L357 0L150 0L432 1600M783 17L750-44Q817-82 829-133Q831-147 831-160Q832-173 830-186Q822-229 784-267Q725-326 628-340Q608-343 583-343Q525-343 437-328L494-202Q546-228 582-228Q588-228 593-227Q625-223 640-192Q644-185 645-177Q646-173 646-169Q645-141 564-113L634 17L783 17Z"  horiz-adv-x="1357" vert-adv-y="2048"  />

      
      </font>
</defs>
</svg>
